<svg width="52" height="52" viewBox="0 0 52 52" fill="none" xmlns="http://www.w3.org/2000/svg">
<rect opacity="0.3" x="1" y="1" width="50" height="50" rx="15" stroke="#A3A3A6" stroke-width="2"/>
<path d="M20.6668 15.3327H19.6004C18.1069 15.3327 17.3597 15.3327 16.7892 15.6233C16.2875 15.879 15.8798 16.2866 15.6241 16.7884C15.3335 17.3588 15.3335 18.1061 15.3335 19.5996V20.666M20.6668 15.3327H31.3335M20.6668 15.3327V12.666M31.3335 15.3327H32.4004C33.8939 15.3327 34.6396 15.3327 35.21 15.6233C35.7118 15.879 36.1208 16.2866 36.3765 16.7884C36.6668 17.3583 36.6668 18.1047 36.6668 19.5952V20.666M31.3335 15.3327V12.666M15.3335 20.666V32.3996C15.3335 33.8931 15.3335 34.6394 15.6241 35.2099C15.8798 35.7116 16.2875 36.12 16.7892 36.3757C17.3591 36.666 18.1055 36.666 19.596 36.666H32.4043C33.8948 36.666 34.6401 36.666 35.21 36.3757C35.7118 36.12 36.1208 35.7116 36.3765 35.2099C36.6668 34.64 36.6668 33.8947 36.6668 32.4041V20.666M15.3335 20.666H36.6668M31.3335 31.3327H31.3362L31.3361 31.3353L31.3335 31.3353V31.3327ZM26.0002 31.3327H26.0028L26.0028 31.3353L26.0002 31.3353V31.3327ZM20.6668 31.3327H20.6695L20.6694 31.3353L20.6668 31.3353V31.3327ZM31.3361 25.9993V26.002L31.3335 26.002V25.9993H31.3361ZM26.0002 25.9993H26.0028L26.0028 26.002L26.0002 26.002V25.9993ZM20.6668 25.9993H20.6695L20.6694 26.002L20.6668 26.002V25.9993Z" stroke="#D7D7DA" stroke-width="2" stroke-linecap="round" stroke-linejoin="round"/>
</svg>
