<svg width="52" height="52" viewBox="0 0 52 52" fill="none" xmlns="http://www.w3.org/2000/svg">
<rect opacity="0.3" x="1" y="1" width="50" height="50" rx="15" stroke="#A3A3A6" stroke-width="2"/>
<path d="M16.6667 23.2305C16.6667 29.6996 22.326 35.0492 24.831 37.1003C25.1895 37.3938 25.3709 37.5423 25.6384 37.6176C25.8466 37.6763 26.1531 37.6763 26.3614 37.6176C26.6294 37.5422 26.8095 37.3951 27.1694 37.1005C29.6743 35.0494 35.3333 29.7002 35.3333 23.2311C35.3333 20.7829 34.35 18.4347 32.5997 16.7036C30.8494 14.9725 28.4755 14 26.0002 14C23.5248 14 21.1508 14.9727 19.4004 16.7038C17.6501 18.4349 16.6667 20.7823 16.6667 23.2305Z" stroke="#D7D7DA" stroke-width="2" stroke-linecap="round" stroke-linejoin="round"/>
<path d="M23.3334 22C23.3334 23.4728 24.5273 24.6667 26.0001 24.6667C27.4728 24.6667 28.6667 23.4728 28.6667 22C28.6667 20.5272 27.4728 19.3333 26.0001 19.3333C24.5273 19.3333 23.3334 20.5272 23.3334 22Z" stroke="#D7D7DA" stroke-width="2" stroke-linecap="round" stroke-linejoin="round"/>
</svg>
