<svg width="1080" height="1080" viewBox="0 0 1080 1080" fill="none" xmlns="http://www.w3.org/2000/svg">
<rect width="1080" height="1080" rx="270" fill="#5B4EFE"/>
<path d="M330.516 887.715L330.128 363.142L443.214 410.778L430.023 797.285L405.598 793.962L681.199 511.026L791.753 557.596L408.157 920.42L330.516 887.715Z" fill="white"/>
<path d="M537.661 181.401L493.246 266.702L547.376 319.247C556.14 327.755 560.017 340.126 557.68 352.126L540.371 441.019L484.321 430.06L499.444 352.39L442.236 296.856C430.769 285.725 427.969 268.364 435.354 254.18L487.03 154.932L537.661 181.401Z" fill="#F47A49"/>
<path d="M747.737 442.749C773.275 436.169 783.364 405.249 766.638 384.822L725.918 335.094L812.975 297.939L790.596 245.292L677.713 293.47C655.582 302.915 648.705 331.011 663.964 349.645L701.562 395.563L586.639 425.174L600.862 480.595L747.737 442.749Z" fill="#F47A49"/>
<path d="M554.843 292.807L603.812 322.248L646.761 250.52L597.792 221.079L554.843 292.807Z" fill="white"/>
</svg>
