<svg width="827" height="219" viewBox="0 0 827 219" fill="none" xmlns="http://www.w3.org/2000/svg">
<path d="M764.699 132.435C765.675 134.251 766.65 136.697 767.626 139.771C767.816 140.343 768 140.916 768.18 141.488C769.243 138.534 770.244 135.517 771.18 132.435L797.104 60.3318H827L781.006 170.792L762.19 219H735.43L755.174 173.223L704.698 60.3318H734.385L764.699 132.435Z" fill="white"/>
<path d="M427.148 58.0266C435.51 58.0266 442.479 59.703 448.054 63.0566C453.768 66.4103 458.019 71.441 460.806 78.1482C463.733 84.8554 465.197 93.2393 465.197 103.3V170.792H439.482V105.187C439.482 99.5976 438.716 94.986 437.183 91.3529C435.65 87.5801 433.28 84.8551 430.074 83.1783C426.869 81.3618 422.966 80.5236 418.367 80.6633C414.604 80.6633 411.119 81.292 407.914 82.5496C404.848 83.6674 402.13 85.3446 399.761 87.5803C397.531 89.6763 395.718 92.1216 394.325 94.9163C393.07 97.7109 392.443 100.785 392.443 104.139V170.792H366.729V60.3318H391.816L392.103 75.9043C393.126 74.5061 394.284 73.1578 395.579 71.86C399.621 67.668 404.429 64.3143 410.004 61.7991C415.579 59.2839 421.294 58.0266 427.148 58.0266Z" fill="white"/>
<path d="M531.758 60.3318H555.799V84.2267H531.758V170.792H506.043V84.2267H484.3V60.3318H506.043V32.2454H531.758V60.3318Z" fill="white"/>
<path d="M604.024 170.792H578.31V60.3318H604.024V170.792Z" fill="white"/>
<path d="M681.162 15.6871C685.901 15.6871 690.291 16.5254 694.333 18.2022C698.375 19.7392 701.79 21.905 704.577 24.6996L696.633 44.1925C694.821 42.6556 692.87 41.4681 690.779 40.6297C688.828 39.7914 686.946 39.3722 685.134 39.3722C682.347 39.3722 679.977 39.8608 678.026 40.8389C676.214 41.6773 674.821 43.0054 673.845 44.8219C673.009 46.6384 672.591 48.8042 672.591 51.3193V62.6377H697.469V85.2744H672.591V170.792H646.667V85.2744H629.524V62.6377H646.667V50.4808C646.667 43.7736 648.13 37.8351 651.057 32.665C653.984 27.3551 658.026 23.2327 663.183 20.2982C668.339 17.2241 674.333 15.6871 681.162 15.6871Z" fill="white"/>
<path d="M590.853 6.88379C596.149 6.88379 600.191 8.21132 602.979 10.8662C605.906 13.3814 607.369 17.0847 607.369 21.9754C607.369 26.307 605.906 29.8704 602.979 32.665C600.052 35.4595 596.01 36.8565 590.853 36.8565C585.697 36.8565 581.655 35.5991 578.728 33.0839C575.94 30.429 574.547 26.7262 574.547 21.9754C574.547 17.5039 576.01 13.8707 578.937 11.076C581.864 8.28134 585.836 6.88382 590.853 6.88379Z" fill="white"/>
<path d="M127.903 163.451L127.817 46.4421L153.041 57.0675L150.099 143.28L144.651 142.538L206.125 79.4284L230.784 89.816L145.221 170.746L127.903 163.451Z" fill="white"/>
<path d="M174.108 5.90404L164.201 24.9307L176.275 36.6512C178.23 38.5488 179.094 41.3082 178.573 43.985L174.712 63.8129L162.21 61.3685L165.583 44.0438L152.823 31.6567C150.265 29.1739 149.641 25.3014 151.288 22.1378L162.814 0L174.108 5.90404Z" fill="#F47A49"/>
<path d="M220.966 64.1989C226.663 62.7312 228.913 55.8343 225.182 51.2781L216.1 40.1859L235.518 31.8983L230.526 20.1552L205.347 30.9014C200.411 33.0083 198.877 39.2752 202.28 43.4317L210.667 53.6738L185.033 60.2788L188.205 72.6405L220.966 64.1989Z" fill="#F47A49"/>
<path fill-rule="evenodd" clip-rule="evenodd" d="M76.9154 56.568C72.8412 55.6188 68.716 55.1433 64.5426 55.1433H62.71L62.685 55.1438C56.9471 55.2926 51.4786 56.111 46.2874 57.6076L45.8041 57.7441C40.8228 59.1719 36.1698 61.0941 31.8513 63.5142C27.4129 66.0016 23.3566 68.9162 19.6879 72.2589C16.0333 75.5888 12.8328 79.2003 10.0922 83.0937L10.0869 83.1017L10.0809 83.1097C7.38822 87.0046 5.20415 91.107 3.53421 95.4152C2.11344 99.0806 1.09907 102.792 0.493847 106.546C-0.111367 110.3 -0.0354572 114.251 0.0777409 117.431C0.190941 120.611 1.39495 126.772 1.74549 127.827C2.09601 128.882 2.5826 130.185 3.18657 131.711C4.23228 134.352 5.72984 137.322 7.65472 140.61L7.65804 140.617L7.66203 140.623C9.62767 143.931 12.1141 147.332 15.1061 150.827C18.1738 154.41 21.865 157.667 26.1608 160.604C30.5073 163.577 35.5122 165.998 41.1539 167.883C46.898 169.802 53.3727 170.741 60.548 170.741C60.5797 170.741 60.6113 170.741 60.643 170.741C64.872 170.731 69.2268 170.255 73.7035 169.322C78.265 168.371 82.7664 166.873 87.205 164.833C91.6611 162.786 95.9565 160.17 100.091 156.995L100.094 156.992C104.315 153.738 108.176 149.847 111.681 145.328L112.92 143.73L97.474 128.891L95.9565 130.898C93.4925 134.155 90.9091 136.948 88.2114 139.287C85.5093 141.583 82.7371 143.449 79.8959 144.9C77.0248 146.318 74.1221 147.364 71.1869 148.044L71.1836 148.045L71.1796 148.045C68.3071 148.721 65.4427 149.062 62.5836 149.069C62.5522 149.069 62.5207 149.069 62.4893 149.069C58.7544 149.069 54.9569 148.503 51.0909 147.357C47.2222 146.21 43.5565 144.582 40.09 142.47C36.7859 140.384 33.7985 137.912 31.1245 135.053L30.8659 134.775C28.9944 132.705 27.4366 130.472 26.1871 128.074L26.2279 128.073H36.8136L36.8276 128.073C40.0913 128.025 43.8024 127.953 47.9595 127.856L47.9854 127.856C52.1321 127.712 56.066 127.591 59.7866 127.495L59.8145 127.494C63.5868 127.35 66.9098 127.23 69.7838 127.134L69.797 127.133L71.6369 127.061L71.6689 127.06C73.4992 126.962 75.7472 126.79 78.4056 126.548C81.174 126.296 84.0702 125.794 87.0907 125.048L87.1033 125.046L87.6975 124.888C90.6068 124.098 93.487 123.045 96.3374 121.732C99.4898 120.28 102.316 118.333 104.807 115.9C107.4 113.414 109.473 110.371 111.041 106.81L111.043 106.805L111.046 106.8C112.66 103.082 113.426 98.7427 113.426 93.846C113.426 90.7062 112.8 87.5495 111.583 84.3886C110.419 81.1959 108.757 78.1507 106.615 75.2543C104.596 72.5244 102.172 69.9924 99.3558 67.6545L98.7875 67.189C95.7731 64.6734 92.4015 62.5176 88.6813 60.7182C84.9323 58.8566 81.0085 57.4734 76.9154 56.568ZM50.145 78.851C54.6166 77.2547 59.0871 76.4605 63.5658 76.4539C63.5981 76.4538 63.6305 76.4538 63.6628 76.4538C67.8339 76.4538 71.8122 77.1766 75.6115 78.6185L75.6195 78.6218C79.3993 80.0398 82.884 82.3082 86.0747 85.4696C88.8219 88.2285 90.0209 91.0065 90.021 93.846C90.021 95.7502 89.6379 97.3261 88.9402 98.6369L88.9349 98.6469L88.9296 98.6576C88.3209 99.8302 87.2548 100.939 85.5588 101.931C83.8465 102.883 81.4731 103.71 78.3581 104.354C75.4267 104.961 71.8107 105.434 67.4928 105.765L66.6201 105.83L65.5639 105.902C62.7609 106.092 59.6251 106.259 56.1556 106.403C52.6702 106.499 48.9725 106.595 45.063 106.691C41.2131 106.739 37.9221 106.787 35.1908 106.835H35.1543L35.1499 106.835H29.0798C27.3119 106.835 25.5435 106.823 23.7755 106.802C24.7558 102.911 26.3007 99.3416 28.4058 96.0826C31.0605 91.9983 34.2221 88.5263 37.8898 85.6522L37.8932 85.6495C41.6202 82.7184 45.7017 80.454 50.145 78.851Z" fill="white"/>
<path fill-rule="evenodd" clip-rule="evenodd" d="M63.5658 76.4539C63.5981 76.4538 63.6305 76.4538 63.6628 76.4538C67.8339 76.4538 71.8122 77.1766 75.6115 78.6185L75.6195 78.6218C79.3993 80.0398 82.884 82.3082 86.0747 85.4696C88.8219 88.2285 90.0209 91.0065 90.021 93.846C90.021 95.7502 89.6379 97.3261 88.9402 98.6369L88.9349 98.6469L88.9296 98.6576C88.3209 99.8302 87.2548 100.939 85.5588 101.931C83.8465 102.883 81.4731 103.71 78.3581 104.354C75.4267 104.961 71.8107 105.434 67.4928 105.765L66.6201 105.83L65.5639 105.902C62.7609 106.092 59.6251 106.259 56.1556 106.403C52.6702 106.499 48.9725 106.595 45.063 106.691C41.2131 106.739 37.9221 106.787 35.1908 106.835H35.1543C37.8848 106.787 41.1743 106.739 45.0221 106.691C48.9316 106.595 52.6294 106.499 56.1148 106.403C59.5842 106.259 62.72 106.092 65.523 105.902L66.5792 105.83L67.452 105.765C71.7698 105.434 75.3858 104.961 78.3172 104.354C81.4322 103.71 83.8056 102.883 85.518 101.931C87.2139 100.939 88.2801 99.8302 88.8887 98.6576L88.894 98.647L88.8993 98.637C89.597 97.3261 89.9801 95.7503 89.9801 93.846C89.98 91.0066 88.781 88.2286 86.0338 85.4697C82.8432 82.3084 79.3589 80.0399 75.5793 78.6219L75.5707 78.6186C71.7713 77.1767 67.7931 76.4539 63.6219 76.4539L63.5658 76.4539ZM63.5658 76.4539C59.0871 76.4605 54.6166 77.2547 50.145 78.851C45.7017 80.454 41.6202 82.7184 37.8932 85.6495L37.8898 85.6522C34.2221 88.5263 31.0605 91.9983 28.4058 96.0826C26.3007 99.3416 24.7558 102.911 23.7755 106.802C25.5435 106.823 27.3119 106.835 29.0798 106.835H35.1499L35.1543 106.835H29.1207C27.3528 106.835 25.5843 106.823 23.8164 106.802C24.7967 102.911 26.3415 99.3415 28.4467 96.0826C31.1013 91.9983 34.263 88.5262 37.9307 85.6521L37.934 85.6494C41.6611 82.7183 45.7426 80.4539 50.1859 78.8509C54.6439 77.2595 59.1008 76.4653 63.5658 76.4539Z" fill="white"/>
<path fill-rule="evenodd" clip-rule="evenodd" d="M312.367 56.568C308.293 55.6188 304.168 55.1433 299.994 55.1433H298.162L298.137 55.1438C292.399 55.2926 286.93 56.111 281.739 57.6076L281.256 57.7441C276.274 59.1719 271.621 61.0941 267.303 63.5142C262.864 66.0016 258.808 68.9162 255.139 72.2589C251.485 75.5888 248.284 79.2003 245.544 83.0937L245.538 83.1017L245.533 83.1097C242.84 87.0046 240.656 91.107 238.986 95.4152C237.565 99.0806 236.551 102.792 235.945 106.546C235.34 110.3 235.416 114.251 235.529 117.431C235.643 120.611 236.847 126.772 237.197 127.827C237.548 128.882 238.034 130.185 238.638 131.711C239.684 134.352 241.181 137.322 243.106 140.61L243.11 140.617L243.114 140.623C245.079 143.931 247.566 147.332 250.558 150.827C253.625 154.41 257.317 157.667 261.612 160.604C265.959 163.577 270.964 165.998 276.605 167.883C282.35 169.802 288.824 170.741 296 170.741C296.031 170.741 296.063 170.741 296.095 170.741C300.324 170.731 304.678 170.255 309.155 169.322C313.717 168.371 318.218 166.873 322.657 164.833C327.113 162.786 331.408 160.17 335.543 156.995L335.546 156.992C339.766 153.738 343.628 149.847 347.132 145.328L348.372 143.73L332.926 128.891L331.408 130.898C328.944 134.155 326.361 136.948 323.663 139.287C320.961 141.583 318.189 143.449 315.348 144.9C312.476 146.318 309.574 147.364 306.639 148.044L306.635 148.045L306.631 148.045C303.759 148.721 300.894 149.062 298.035 149.069C298.004 149.069 297.972 149.069 297.941 149.069C294.206 149.069 290.409 148.503 286.542 147.357C282.674 146.21 279.008 144.582 275.542 142.47C272.237 140.384 269.25 137.912 266.576 135.053L266.318 134.775C264.446 132.705 262.888 130.472 261.639 128.074L261.68 128.073H272.265L272.279 128.073C275.543 128.025 279.254 127.953 283.411 127.856L283.437 127.856C287.584 127.712 291.518 127.591 295.238 127.495L295.266 127.494C299.038 127.35 302.361 127.23 305.235 127.134L305.249 127.133L307.089 127.061L307.12 127.06C308.951 126.962 311.199 126.79 313.857 126.548C316.626 126.296 319.522 125.794 322.542 125.048L322.555 125.046L323.149 124.888C326.058 124.098 328.939 123.045 331.789 121.732C334.941 120.28 337.768 118.333 340.259 115.9C342.852 113.414 344.925 110.371 346.493 106.81L346.495 106.805L346.498 106.8C348.112 103.082 348.878 98.7427 348.878 93.846C348.878 90.7062 348.252 87.5495 347.035 84.3886C345.871 81.1959 344.209 78.1507 342.067 75.2543C340.048 72.5244 337.623 69.9924 334.807 67.6545L334.239 67.189C331.225 64.6734 327.853 62.5176 324.133 60.7182C320.384 58.8566 316.46 57.4734 312.367 56.568ZM285.597 78.851C290.068 77.2547 294.539 76.4605 299.017 76.4539C299.05 76.4538 299.082 76.4538 299.114 76.4538C303.286 76.4538 307.264 77.1766 311.063 78.6185L311.071 78.6218C314.851 80.0398 318.336 82.3082 321.526 85.4696C324.273 88.2285 325.473 91.0065 325.473 93.846C325.473 95.7502 325.089 97.3261 324.392 98.6369L324.386 98.6469L324.381 98.6576C323.773 99.8302 322.706 100.939 321.01 101.931C319.298 102.883 316.925 103.71 313.81 104.354C310.878 104.961 307.262 105.434 302.944 105.765L302.072 105.83L301.015 105.902C298.212 106.092 295.077 106.259 291.607 106.403C288.122 106.499 284.424 106.595 280.515 106.691C276.665 106.739 273.374 106.787 270.642 106.835H270.606L270.602 106.835H264.531C262.763 106.835 260.995 106.823 259.227 106.802C260.207 102.911 261.752 99.3416 263.857 96.0826C266.512 91.9983 269.674 88.5263 273.341 85.6522L273.345 85.6495C277.072 82.7184 281.153 80.454 285.597 78.851Z" fill="white"/>
<path fill-rule="evenodd" clip-rule="evenodd" d="M299.017 76.4539C299.05 76.4538 299.082 76.4538 299.114 76.4538C303.286 76.4538 307.264 77.1766 311.063 78.6185L311.071 78.6218C314.851 80.0398 318.336 82.3082 321.526 85.4696C324.273 88.2285 325.473 91.0065 325.473 93.846C325.473 95.7502 325.089 97.3261 324.392 98.6369L324.386 98.6469L324.381 98.6576C323.773 99.8302 322.706 100.939 321.01 101.931C319.298 102.883 316.925 103.71 313.81 104.354C310.878 104.961 307.262 105.434 302.944 105.765L302.072 105.83L301.015 105.902C298.212 106.092 295.077 106.259 291.607 106.403C288.122 106.499 284.424 106.595 280.515 106.691C276.665 106.739 273.374 106.787 270.642 106.835H270.606C273.336 106.787 276.626 106.739 280.474 106.691C284.383 106.595 288.081 106.499 291.566 106.403C295.036 106.259 298.172 106.092 300.975 105.902L302.031 105.83L302.904 105.765C307.221 105.434 310.837 104.961 313.769 104.354C316.884 103.71 319.257 102.883 320.97 101.931C322.666 100.939 323.732 99.8302 324.34 98.6576L324.346 98.647L324.351 98.637C325.049 97.3261 325.432 95.7503 325.432 93.846C325.432 91.0066 324.233 88.2286 321.485 85.4697C318.295 82.3084 314.811 80.0399 311.031 78.6219L311.022 78.6186C307.223 77.1767 303.245 76.4539 299.074 76.4539L299.017 76.4539ZM299.017 76.4539C294.539 76.4605 290.068 77.2547 285.597 78.851C281.153 80.454 277.072 82.7184 273.345 85.6495L273.341 85.6522C269.674 88.5263 266.512 91.9983 263.857 96.0826C261.752 99.3416 260.207 102.911 259.227 106.802C260.995 106.823 262.763 106.835 264.531 106.835H270.602L270.606 106.835H264.572C262.804 106.835 261.036 106.823 259.268 106.802C260.248 102.911 261.793 99.3415 263.898 96.0826C266.553 91.9983 269.715 88.5262 273.382 85.6521L273.386 85.6494C277.113 82.7183 281.194 80.4539 285.637 78.8509C290.095 77.2595 294.552 76.4653 299.017 76.4539Z" fill="white"/>
<path d="M177.941 30.7536L188.863 37.3206L198.443 21.3214L187.52 14.7544L177.941 30.7536Z" fill="white"/>
</svg>
