<svg width="353" height="93" viewBox="0 0 353 93" fill="none" xmlns="http://www.w3.org/2000/svg">
<path d="M326.407 56.2394C326.824 57.0108 327.24 58.0493 327.656 59.3547C327.738 59.5977 327.816 59.8409 327.893 60.0839C328.347 58.8296 328.774 57.5483 329.174 56.2394L340.239 25.6204H353L333.368 72.5281L325.336 93H313.914L322.342 73.5605L300.796 25.6204H313.468L326.407 56.2394Z" fill="#161618"/>
<path d="M182.325 24.6414C185.895 24.6414 188.87 25.3533 191.249 26.7775C193.688 28.2016 195.503 30.338 196.692 33.1862C197.942 36.0345 198.566 39.5948 198.566 43.8671V72.5281H187.59V44.6684C187.59 42.2949 187.263 40.3365 186.609 38.7937C185.954 37.1915 184.943 36.0344 183.575 35.3223C182.206 34.5509 180.541 34.1949 178.577 34.2543C176.971 34.2543 175.484 34.5213 174.116 35.0553C172.807 35.53 171.647 36.2422 170.635 37.1916C169.684 38.0817 168.91 39.1201 168.315 40.3069C167.78 41.4937 167.512 42.7991 167.512 44.2232V72.5281H156.536V25.6204H167.244L167.367 32.2333C167.803 31.6396 168.298 31.067 168.85 30.5159C170.576 28.7357 172.628 27.3116 175.008 26.2435C177.388 25.1754 179.827 24.6414 182.325 24.6414Z" fill="#161618"/>
<path d="M226.978 25.6204H237.24V35.7675H226.978V72.5281H216.001V35.7675H206.721V25.6204H216.001V13.6932H226.978V25.6204Z" fill="#161618"/>
<path d="M257.824 72.5281H246.848V25.6204H257.824V72.5281Z" fill="#161618"/>
<path d="M290.75 6.66165C292.773 6.66165 294.647 7.01762 296.372 7.72968C298.097 8.3824 299.555 9.30213 300.745 10.4889L297.353 18.7667C296.58 18.114 295.747 17.6097 294.855 17.2537C294.022 16.8977 293.219 16.7197 292.446 16.7197C291.256 16.7197 290.244 16.9272 289.411 17.3425C288.638 17.6986 288.043 18.2626 287.627 19.034C287.27 19.8054 287.091 20.7251 287.091 21.7931V26.5996H297.71V36.2124H287.091V72.5281H276.026V36.2124H268.709V26.5996H276.026V21.437C276.026 18.5888 276.651 16.067 277.9 13.8714C279.149 11.6166 280.874 9.86592 283.076 8.6198C285.277 7.31434 287.835 6.66165 290.75 6.66165Z" fill="#161618"/>
<path d="M252.202 2.92325C254.463 2.92325 256.188 3.487 257.378 4.6144C258.627 5.6825 259.252 7.25514 259.252 9.33201C259.252 11.1715 258.627 12.6847 257.378 13.8714C256.129 15.0581 254.403 15.6514 252.202 15.6514C250.001 15.6514 248.276 15.1174 247.027 14.0493C245.837 12.9219 245.242 11.3495 245.242 9.33201C245.242 7.43316 245.867 5.89028 247.116 4.7035C248.365 3.51673 250.061 2.92327 252.202 2.92325Z" fill="#161618"/>
<path d="M54.5947 69.4105L54.5578 19.722L65.3246 24.2342L64.0687 60.8448L61.7432 60.53L87.9831 33.7299L98.5089 38.141L61.9868 72.5084L54.5947 69.4105Z" fill="#161618"/>
<path d="M74.3169 2.50719L70.0882 10.587L75.2419 15.5642C76.0763 16.37 76.4454 17.5419 76.2229 18.6786L74.5749 27.0986L69.2384 26.0606L70.6783 18.7035L65.2315 13.4433C64.1397 12.3889 63.8732 10.7444 64.5763 9.40096L69.4964 0L74.3169 2.50719Z" fill="#F47A49"/>
<path d="M94.3182 27.2626C96.7497 26.6393 97.7103 23.7105 96.1178 21.7756L92.2408 17.0652L100.53 13.5459L98.3988 8.55905L87.6513 13.1225C85.5442 14.0172 84.8894 16.6785 86.3422 18.4436L89.9219 22.793L78.9801 25.5978L80.3342 30.8473L94.3182 27.2626Z" fill="#F47A49"/>
<path fill-rule="evenodd" clip-rule="evenodd" d="M32.8309 24.022C31.0918 23.6189 29.331 23.417 27.5496 23.417H26.7674L26.7567 23.4172C24.3075 23.4804 21.9733 23.8279 19.7575 24.4635L19.5512 24.5215C17.425 25.1278 15.4389 25.9441 13.5955 26.9718C11.701 28.0281 9.96962 29.2658 8.40365 30.6853C6.84372 32.0994 5.47762 33.633 4.30779 35.2864L4.30552 35.2898L4.30297 35.2932C3.15362 36.9472 2.22136 38.6893 1.50856 40.5188C0.90211 42.0753 0.46913 43.6512 0.210796 45.2454C-0.0475363 46.8397 -0.0151347 48.5177 0.0331833 49.868C0.0815022 51.2184 0.595425 53.8346 0.74505 54.2827C0.894669 54.7308 1.10237 55.2842 1.36017 55.932C1.80652 57.0535 2.44575 58.3146 3.26737 59.7111L3.26879 59.7139L3.27049 59.7165C4.10951 61.1212 5.17083 62.5657 6.44793 64.0497C7.75739 65.5713 9.33293 66.9544 11.1666 68.2019C13.0219 69.4641 15.1582 70.4921 17.5663 71.2926C20.0181 72.1076 22.7818 72.5063 25.8445 72.5063C25.8581 72.5063 25.8716 72.5063 25.8851 72.5062C27.6902 72.502 29.549 72.3 31.4599 71.9039C33.4069 71.5002 35.3284 70.8639 37.2229 69.9977C39.125 69.1281 40.9585 68.0172 42.7232 66.6689L42.7247 66.6678C44.5261 65.2862 46.1743 63.6335 47.6703 61.7148L48.1994 61.036L41.6062 54.7344L40.9585 55.5867C39.9067 56.9701 38.804 58.1559 37.6525 59.1494C36.4991 60.1241 35.3158 60.9169 34.1031 61.533C32.8776 62.135 31.6386 62.5791 30.3857 62.868L30.3843 62.8683L30.3826 62.8686C29.1565 63.1557 27.9338 63.3001 26.7135 63.3033C26.7 63.3033 26.6866 63.3033 26.6732 63.3033C25.079 63.3033 23.458 63.0629 21.8078 62.5761C20.1565 62.089 18.5918 61.3976 17.1122 60.5011C15.7018 59.6151 14.4267 58.5655 13.2853 57.3513L13.1749 57.2331C12.3761 56.354 11.7112 55.4058 11.1778 54.3874L11.1952 54.3874H15.7137L15.7197 54.3871C17.1127 54.3666 18.6968 54.3361 20.4712 54.2952L20.4823 54.2949C22.2523 54.2337 23.9314 54.1827 25.5195 54.1419L25.5315 54.1413C27.1417 54.08 28.5601 54.0291 29.7868 53.9883L29.7924 53.988L30.5778 53.9575L30.5914 53.9569C31.3727 53.9152 32.3322 53.8425 33.467 53.7397C34.6486 53.6326 35.8848 53.4192 37.1741 53.1027L37.1795 53.1016L37.4332 53.0345C38.675 52.6992 39.9044 52.2519 41.121 51.6944C42.4666 51.0778 43.673 50.2512 44.7363 49.2178C45.8432 48.1619 46.7279 46.8698 47.3973 45.3578L47.3982 45.3555L47.3993 45.3532C48.0882 43.7747 48.4153 41.9318 48.4153 39.8524C48.4153 38.5191 48.1482 37.1786 47.6286 35.8363C47.1317 34.4804 46.4224 33.1873 45.508 31.9573C44.6462 30.798 43.6114 29.7228 42.4094 28.73L42.1668 28.5323C40.8802 27.4641 39.441 26.5486 37.8531 25.7844C36.2528 24.9939 34.578 24.4065 32.8309 24.022ZM21.4041 33.4847C23.3128 32.8068 25.221 32.4695 27.1327 32.4667C27.1465 32.4667 27.1603 32.4667 27.1741 32.4667C28.9545 32.4667 30.6526 32.7736 32.2743 33.3859L32.2777 33.3873C33.8911 33.9895 35.3785 34.9528 36.7404 36.2953C37.9131 37.4669 38.4249 38.6466 38.4249 39.8524C38.4249 40.6611 38.2614 41.3303 37.9636 41.8869L37.9613 41.8911L37.9591 41.8957C37.6992 42.3936 37.2442 42.8645 36.5203 43.2856C35.7894 43.6901 34.7763 44.0411 33.4467 44.3149C32.1954 44.5725 30.652 44.7734 28.8089 44.9139L28.4364 44.9414L27.9855 44.9719C26.7891 45.0529 25.4506 45.1236 23.9697 45.1846C22.482 45.2254 20.9036 45.2663 19.2349 45.3071C17.5915 45.3275 16.1868 45.3478 15.021 45.3682H15.0054L15.0035 45.3682H12.4126C11.6579 45.3682 10.9031 45.3632 10.1484 45.3544C10.5669 43.7019 11.2263 42.1862 12.1249 40.8022C13.258 39.0678 14.6075 37.5933 16.1731 36.3728L16.1745 36.3717C17.7653 35.127 19.5075 34.1654 21.4041 33.4847Z" fill="#161618"/>
<path fill-rule="evenodd" clip-rule="evenodd" d="M27.1327 32.4667C27.1465 32.4667 27.1603 32.4667 27.1741 32.4667C28.9545 32.4667 30.6526 32.7736 32.2743 33.3859L32.2777 33.3873C33.8911 33.9895 35.3785 34.9528 36.7404 36.2953C37.9131 37.4669 38.4249 38.6466 38.4249 39.8524C38.4249 40.6611 38.2614 41.3303 37.9636 41.8869L37.9613 41.8911L37.9591 41.8957C37.6992 42.3936 37.2442 42.8645 36.5203 43.2856C35.7894 43.6901 34.7763 44.0411 33.4467 44.3149C32.1954 44.5725 30.652 44.7734 28.8089 44.9139L28.4364 44.9414L27.9855 44.9719C26.7891 45.0529 25.4506 45.1236 23.9697 45.1846C22.482 45.2254 20.9036 45.2663 19.2349 45.3071C17.5915 45.3275 16.1868 45.3478 15.021 45.3682H15.0054C16.1709 45.3478 17.575 45.3275 19.2174 45.3071C20.8862 45.2663 22.4645 45.2255 23.9522 45.1847C25.4332 45.1237 26.7717 45.0529 27.9681 44.972L28.4189 44.9414L28.7915 44.914C30.6345 44.7735 32.178 44.5725 33.4292 44.3149C34.7588 44.0412 35.7719 43.6902 36.5028 43.2856C37.2267 42.8646 37.6818 42.3937 37.9416 41.8957L37.9439 41.8912L37.9461 41.8869C38.2439 41.3303 38.4075 40.6611 38.4075 39.8524C38.4074 38.6466 37.8956 37.4669 36.723 36.2953C35.3611 34.9529 33.8739 33.9895 32.2606 33.3874L32.2569 33.386C30.6352 32.7737 28.9371 32.4667 27.1566 32.4667L27.1327 32.4667ZM27.1327 32.4667C25.221 32.4695 23.3128 32.8068 21.4041 33.4847C19.5075 34.1654 17.7653 35.127 16.1745 36.3717L16.1731 36.3728C14.6075 37.5933 13.258 39.0678 12.1249 40.8022C11.2263 42.1862 10.5669 43.7019 10.1484 45.3544C10.9031 45.3632 11.6579 45.3682 12.4126 45.3682H15.0035L15.0054 45.3682H12.43C11.6754 45.3682 10.9205 45.3632 10.1659 45.3543C10.5843 43.7018 11.2437 42.1861 12.1423 40.8022C13.2754 39.0677 14.625 37.5933 16.1905 36.3728L16.1919 36.3717C17.7828 35.1269 19.5249 34.1654 21.4215 33.4846C23.3244 32.8088 25.2268 32.4715 27.1327 32.4667Z" fill="#161618"/>
<path fill-rule="evenodd" clip-rule="evenodd" d="M133.332 24.022C131.593 23.6189 129.832 23.417 128.051 23.417H127.269L127.258 23.4172C124.809 23.4804 122.474 23.8279 120.259 24.4635L120.052 24.5215C117.926 25.1278 115.94 25.9441 114.097 26.9718C112.202 28.0281 110.471 29.2658 108.905 30.6853C107.345 32.0994 105.979 33.633 104.809 35.2864L104.807 35.2898L104.804 35.2932C103.655 36.9472 102.722 38.6893 102.01 40.5188C101.403 42.0753 100.97 43.6512 100.712 45.2454C100.454 46.8397 100.486 48.5177 100.534 49.868C100.583 51.2184 101.097 53.8346 101.246 54.2827C101.396 54.7308 101.603 55.2842 101.861 55.932C102.308 57.0535 102.947 58.3146 103.768 59.7111L103.77 59.7139L103.772 59.7165C104.611 61.1212 105.672 62.5657 106.949 64.0497C108.258 65.5713 109.834 66.9544 111.668 68.2019C113.523 69.4641 115.659 70.4921 118.067 71.2926C120.519 72.1076 123.283 72.5063 126.346 72.5063C126.359 72.5063 126.373 72.5063 126.386 72.5062C128.191 72.502 130.05 72.3 131.961 71.9039C133.908 71.5002 135.829 70.8639 137.724 69.9977C139.626 69.1281 141.46 68.0172 143.224 66.6689L143.226 66.6678C145.027 65.2862 146.675 63.6335 148.171 61.7148L148.701 61.036L142.107 54.7344L141.46 55.5867C140.408 56.9701 139.305 58.1559 138.154 59.1494C137 60.1241 135.817 60.9169 134.604 61.533C133.379 62.135 132.14 62.5791 130.887 62.868L130.885 62.8683L130.884 62.8686C129.658 63.1557 128.435 63.3001 127.215 63.3033C127.201 63.3033 127.188 63.3033 127.174 63.3033C125.58 63.3033 123.959 63.0629 122.309 62.5761C120.658 62.089 119.093 61.3976 117.613 60.5011C116.203 59.6151 114.928 58.5655 113.786 57.3513L113.676 57.2331C112.877 56.354 112.212 55.4058 111.679 54.3874L111.696 54.3874H116.215L116.221 54.3871C117.614 54.3666 119.198 54.3361 120.972 54.2952L120.983 54.2949C122.753 54.2337 124.433 54.1827 126.021 54.1419L126.033 54.1413C127.643 54.08 129.061 54.0291 130.288 53.9883L130.294 53.988L131.079 53.9575L131.093 53.9569C131.874 53.9152 132.833 53.8425 133.968 53.7397C135.15 53.6326 136.386 53.4192 137.675 53.1027L137.681 53.1016L137.934 53.0345C139.176 52.6992 140.405 52.2519 141.622 51.6944C142.968 51.0778 144.174 50.2512 145.237 49.2178C146.344 48.1619 147.229 46.8698 147.898 45.3578L147.899 45.3555L147.9 45.3532C148.589 43.7747 148.916 41.9318 148.916 39.8524C148.916 38.5191 148.649 37.1786 148.13 35.8363C147.633 34.4804 146.924 33.1873 146.009 31.9573C145.147 30.798 144.113 29.7228 142.911 28.73L142.668 28.5323C141.381 27.4641 139.942 26.5486 138.354 25.7844C136.754 24.9939 135.079 24.4065 133.332 24.022ZM121.905 33.4847C123.814 32.8068 125.722 32.4695 127.634 32.4667C127.648 32.4667 127.661 32.4667 127.675 32.4667C129.456 32.4667 131.154 32.7736 132.775 33.3859L132.779 33.3873C134.392 33.9895 135.88 34.9528 137.242 36.2953C138.414 37.4669 138.926 38.6466 138.926 39.8524C138.926 40.6611 138.762 41.3303 138.465 41.8869L138.462 41.8911L138.46 41.8957C138.2 42.3936 137.745 42.8645 137.021 43.2856C136.29 43.6901 135.277 44.0411 133.948 44.3149C132.697 44.5725 131.153 44.7734 129.31 44.9139L128.937 44.9414L128.487 44.9719C127.29 45.0529 125.952 45.1236 124.471 45.1846C122.983 45.2254 121.405 45.2663 119.736 45.3071C118.093 45.3275 116.688 45.3478 115.522 45.3682H115.507L115.505 45.3682H112.914C112.159 45.3682 111.404 45.3632 110.65 45.3544C111.068 43.7019 111.727 42.1862 112.626 40.8022C113.759 39.0678 115.109 37.5933 116.674 36.3728L116.676 36.3717C118.266 35.127 120.009 34.1654 121.905 33.4847Z" fill="#161618"/>
<path fill-rule="evenodd" clip-rule="evenodd" d="M127.634 32.4667C127.648 32.4667 127.661 32.4667 127.675 32.4667C129.456 32.4667 131.154 32.7736 132.775 33.3859L132.779 33.3873C134.392 33.9895 135.88 34.9528 137.242 36.2953C138.414 37.4669 138.926 38.6466 138.926 39.8524C138.926 40.6611 138.762 41.3303 138.465 41.8869L138.462 41.8911L138.46 41.8957C138.2 42.3936 137.745 42.8645 137.021 43.2856C136.29 43.6901 135.277 44.0411 133.948 44.3149C132.697 44.5725 131.153 44.7734 129.31 44.9139L128.937 44.9414L128.487 44.9719C127.29 45.0529 125.952 45.1236 124.471 45.1846C122.983 45.2254 121.405 45.2663 119.736 45.3071C118.093 45.3275 116.688 45.3478 115.522 45.3682H115.507C116.672 45.3478 118.076 45.3275 119.719 45.3071C121.387 45.2663 122.966 45.2255 124.453 45.1847C125.934 45.1237 127.273 45.0529 128.469 44.972L128.92 44.9414L129.293 44.914C131.136 44.7735 132.679 44.5725 133.93 44.3149C135.26 44.0412 136.273 43.6902 137.004 43.2856C137.728 42.8646 138.183 42.3937 138.443 41.8957L138.445 41.8912L138.447 41.8869C138.745 41.3303 138.909 40.6611 138.909 39.8524C138.909 38.6466 138.397 37.4669 137.224 36.2953C135.862 34.9529 134.375 33.9895 132.762 33.3874L132.758 33.386C131.136 32.7737 129.438 32.4667 127.658 32.4667L127.634 32.4667ZM127.634 32.4667C125.722 32.4695 123.814 32.8068 121.905 33.4847C120.009 34.1654 118.266 35.127 116.676 36.3717L116.674 36.3728C115.109 37.5933 113.759 39.0678 112.626 40.8022C111.727 42.1862 111.068 43.7019 110.65 45.3544C111.404 45.3632 112.159 45.3682 112.914 45.3682H115.505L115.507 45.3682H112.931C112.176 45.3682 111.422 45.3632 110.667 45.3543C111.085 43.7018 111.745 42.1861 112.643 40.8022C113.777 39.0677 115.126 37.5933 116.692 36.3728L116.693 36.3717C118.284 35.1269 120.026 34.1654 121.923 33.4846C123.826 32.8088 125.728 32.4715 127.634 32.4667Z" fill="#161618"/>
<path d="M75.9528 13.0598L80.6151 15.8485L84.7043 9.0543L80.0419 6.26559L75.9528 13.0598Z" fill="#161618"/>
</svg>
