<svg width="1024" height="1024" viewBox="0 0 1024 1024" fill="none" xmlns="http://www.w3.org/2000/svg">
<g clip-path="url(#clip0_4528_25704)">
<rect width="1024" height="1024" rx="228" fill="url(#paint0_linear_4528_25704)"/>
<path d="M-17.4814 564.06C26.9692 558.397 228.199 533.681 271.58 522.558C335.723 506.112 404.938 490.019 462.525 456.34C491.754 439.245 518.159 417.041 541.804 392.91C562.762 371.521 585.595 344.481 591.121 314.112C603.453 246.342 547.891 198.698 485.56 190.631C417.814 181.864 352.324 213.122 306.48 261.498C264.877 305.399 230.536 366.304 205 420.5C180.195 473.144 159.265 525.348 145.797 582.498C134.3 631.283 136.696 679.4 144.592 728.558C150.172 763.297 163.134 789.748 193 810.5C243.035 845.266 312.104 846.034 370.058 842.042C432.067 837.771 493.298 816.64 551.23 795.198C585.259 782.602 619.691 770.491 652.352 754.593C679.721 741.27 705.522 725.297 731.729 709.894C753.018 697.382 773.986 684.838 794.508 671.094C809.249 661.223 821.611 648.711 835.847 638.195C874.654 609.526 910.438 580.262 942.883 544.475C954.142 532.056 1074.64 406.466 1084.52 392.91" stroke="#1F4A2F" stroke-width="150" stroke-linecap="round"/>
<path d="M15.5186 588.06C59.9692 582.397 261.199 557.681 304.58 546.558C368.723 530.112 437.938 514.019 495.525 480.34C524.754 463.245 551.159 441.041 574.804 416.91C595.762 395.521 618.595 368.481 624.121 338.112C636.453 270.342 580.891 222.698 518.56 214.631C450.814 205.864 385.324 237.122 339.48 285.498C297.877 329.399 263.536 390.304 238 444.5C213.195 497.144 192.265 549.348 178.797 606.498C167.3 655.283 169.696 703.4 177.592 752.558C183.172 787.297 196.134 813.748 226 834.5C276.035 869.266 345.104 870.034 403.058 866.042C465.067 861.771 526.298 840.64 584.23 819.198C618.259 806.602 652.691 794.491 685.352 778.593C712.721 765.27 738.522 749.297 764.729 733.894C786.018 721.382 806.986 708.838 827.508 695.094C842.249 685.223 854.611 672.711 868.847 662.195C907.654 633.526 943.438 604.262 975.883 568.475C987.142 556.056 1107.64 430.466 1117.52 416.91" stroke="#74F6A7" stroke-width="150" stroke-linecap="round"/>
</g>
<defs>
<linearGradient id="paint0_linear_4528_25704" x1="512" y1="0" x2="512" y2="1024" gradientUnits="userSpaceOnUse">
<stop stop-color="#2F2F2F"/>
<stop offset="1" stop-color="#171717"/>
</linearGradient>
<clipPath id="clip0_4528_25704">
<rect width="1024" height="1024" rx="228" fill="white"/>
</clipPath>
</defs>
</svg>