<svg width="605" height="486" viewBox="0 0 605 486" fill="none" xmlns="http://www.w3.org/2000/svg">
<path fill-rule="evenodd" clip-rule="evenodd" d="M348.217 485.781C420.646 485.781 484.206 431.904 448.511 358.725C412.815 285.547 545.447 287.911 584.408 237.335C631.922 175.655 618.162 -86.1654 313.141 73.453C264.281 99.022 138.796 47.1485 97.1717 72.8872C48.1762 103.184 -20.7576 165.223 48.1762 228.772C82.1317 260.075 -39.6067 341.324 13.7123 414.102C65.7383 485.115 102.208 417.419 181.416 431.904C260.625 446.388 294.425 485.781 348.217 485.781Z" fill="#DBFFE9"/>
<path d="M264.149 358.472C264.149 358.472 280.826 350.627 287.052 345.169C293.278 339.711 301.019 326.152 301.019 326.152C301.019 326.152 386.042 387.555 441.48 378.796C454.253 376.778 479.142 368.288 480.729 353.328C485.063 312.48 425.099 302.041 438.197 281.326C446.193 268.681 471.03 287.5 471.03 287.5L574.048 338.172C574.048 338.172 538.458 425.902 452.09 429.417C345.846 433.742 264.149 358.472 264.149 358.472Z" fill="white"/>
<path fill-rule="evenodd" clip-rule="evenodd" d="M182.473 14.9017C181.506 14.5221 176.313 8.164 169.721 7.00679C166.725 6.48094 169.444 10.2954 166.147 10.3297C156.328 10.4319 140.372 8.58719 137.416 10.3297C135.219 11.6206 140.057 16.1305 137.416 16.3375C112.494 18.2909 74.4743 43.1743 66.2255 55.2464C63.6004 59.0883 84.8318 52.57 81.449 54.4693C77.6522 56.6011 73.4414 70.5596 70.9237 81.3403C69.1807 88.7642 68.0833 98.3183 67.696 108.712C67.3732 117.685 67.5023 119.17 68.7934 124.076C70.2782 129.563 71.4402 131.177 73.4414 130.402C74.1515 130.144 74.4743 129.176 74.4743 127.368C74.4743 125.948 75.2489 121.687 76.2173 117.879L77.8957 111.036L78.6058 113.876C79.5096 117.168 84.8031 127.368 89.5802 134.792C89.8378 135.186 90.9463 134.685 91.9459 132.269C92.8568 130.067 92.4871 126.55 94.0345 122.78C97.5592 114.193 104.48 103.029 112.494 94.0923C124.338 80.8846 128.267 65.5993 139.369 53.3294C160.088 30.4313 186.092 16.3227 182.473 14.9017Z" fill="white"/>
<path fill-rule="evenodd" clip-rule="evenodd" d="M81.7436 57.5842C78.4199 60.2568 73.4864 81.9351 73.4018 82.2974C71.6588 89.7213 69.9786 115.502 71.696 120.382C73.4134 125.263 78.2224 107.669 78.2224 107.669C78.2224 107.669 85.4911 126.543 91.9137 131.718C92.1881 131.939 84.2796 108.366 81.7436 94.6052C78.3959 76.4396 83.6351 56.0631 81.7436 57.5842Z" fill="#E7EAEE"/>
<path fill-rule="evenodd" clip-rule="evenodd" d="M205.624 437.248C211.821 435.892 222.278 431.171 226.282 429.557C230.285 427.943 242.485 410.716 246.875 391.285C250.038 376.953 251.652 356.554 249.844 353.132C249.577 352.647 248.601 343.371 251.2 346.4C256.978 353.132 263.837 363.702 285.478 344.762C291.373 339.603 299.185 332.946 297.128 327.06C291.373 310.592 266.423 277.432 262.62 274.92C258.072 271.917 235.087 274.469 200.88 264.372C162.086 252.922 145.933 219.206 130.752 223.595C118.475 227.144 89.0599 248.957 81.6778 262.769C46.8264 327.981 89.0599 373.675 98.6781 386.799L108.017 390.833L108.34 399.16L108.791 404.389C109.631 414.395 109.953 415.299 114.472 418.656C125.769 427.242 148.041 435.247 168.182 438.087C177.543 439.378 197.877 438.926 205.624 437.248Z" fill="white"/>
<path fill-rule="evenodd" clip-rule="evenodd" d="M111.689 396.112L112.141 401.341C112.98 411.347 113.303 412.25 117.822 415.607C124.487 420.672 134.971 425.535 146.583 429.255C154.655 431.84 163.273 433.874 171.532 435.038C180.892 436.329 201.227 435.878 208.974 434.199C212.803 433.37 181.307 408.625 162.752 415.607C148.503 420.969 114.919 380.07 128.574 369.385C143.892 357.398 115.822 310.122 114.919 299.858C114.015 289.594 110.456 287.142 110.352 287.502C110.248 287.862 110.248 289.09 110.527 292.049C111.732 304.803 111.689 396.112 111.689 396.112Z" fill="#E7EAEE"/>
<path fill-rule="evenodd" clip-rule="evenodd" d="M108.327 296.928C109.682 296.665 110.994 297.549 111.258 298.905C116.13 323.936 136.739 340.881 173.59 349.743C210.661 358.657 235.911 358.176 249.216 348.661C250.339 347.858 249.502 354.736 248.679 355.264C240.002 360.828 210.499 369.131 175.291 361.627C130.274 352.032 109.137 314.179 106.35 299.86C106.086 298.505 106.971 297.192 108.327 296.928Z" fill="#AAD6BB"/>
<path fill-rule="evenodd" clip-rule="evenodd" d="M89.5543 251.767C90.7527 251.081 135.464 302.324 196.824 313.923C258.184 325.523 273.04 318.146 275.428 302.324C275.634 300.959 276.908 300.019 278.273 300.225C279.638 300.431 280.578 301.705 280.372 303.07C277.346 323.122 248.953 327.891 195.983 318.852C143.678 309.927 107.818 288.721 88.6259 255.178C87.9402 253.98 88.3559 252.452 89.5543 251.767Z" fill="#AAD6BB"/>
<path fill-rule="evenodd" clip-rule="evenodd" d="M347.091 248.925C345.413 248.344 343.605 247.053 342.443 245.568L340.506 243.179L347.349 236.401C357.872 226.072 365.941 215.485 372.913 202.897C375.237 198.701 381.112 184.692 381.112 183.337C381.112 182.885 381.822 181.077 382.661 179.205C383.952 176.494 384.92 175.461 387.696 173.912C390.988 171.975 394.733 171.329 396.347 172.427C399.445 174.493 399.445 181.013 396.347 192.245C392.925 204.575 388.342 213.419 378.852 226.137C377.367 228.073 374.591 231.882 372.59 234.529C367.232 241.63 363.746 245.051 359.034 247.698C354.386 250.28 351.674 250.603 347.091 248.925ZM393.441 243.115L398.089 245.181C399.053 245.626 409.685 250.734 422.457 256.871C443.048 266.765 469.199 279.33 469.358 279.33C469.616 279.33 470.828 276.529 471.101 273.262C471.747 266.226 474.135 256.672 476.911 250.022C478.202 247.053 479.235 243.341 479.235 243.019C479.235 242.871 478.186 242.448 476.468 241.755C474.422 240.93 471.43 239.723 468.132 238.144C451.864 230.333 420.038 214.388 416.1 211.999C412.227 209.74 411.452 209.546 411.452 211.031C411.452 212.968 407.514 221.941 404.48 226.783C402.866 229.429 399.703 234.206 397.444 237.37L393.441 243.115ZM468.261 267.71C470.112 268.783 466.905 270.357 466.13 270.615C461.569 271.003 456.199 270.145 451.799 267.581C449.499 265.95 431.384 255.886 419.368 249.211C413.875 246.159 409.656 243.815 408.806 243.309C406.094 241.695 403.512 239.952 403.06 239.435C401.704 237.692 402.996 236.918 406.804 237.24C409.094 237.434 464.262 265.393 468.261 267.71ZM205.844 436.716C210.824 435.626 218.554 432.364 223.476 430.287C224.68 429.779 225.715 429.342 226.502 429.025C230.506 427.41 242.705 410.184 247.095 390.753C250.258 376.421 251.872 356.022 250.064 352.6C248.975 350.619 255.449 357.266 260.271 362.217C261.733 363.717 263.043 365.062 263.944 365.963C292.09 393.916 333.986 416.381 377.496 426.903C399.187 432.197 414.615 434.069 435.338 434.069C470.133 434.069 497.569 427.226 522.487 412.185C523.671 411.47 524.78 410.814 525.837 410.188C534.523 405.045 539.698 401.982 553.861 386.04C569.747 368.158 583.879 326.649 588.592 312.318C590.657 305.863 595.693 280.186 595.693 273.779C595.693 266.193 593.046 262.611 589.431 258.931C583.04 252.669 574.389 250.41 567.224 253.121L563.867 254.412L562.834 250.991C561.349 245.826 558.251 241.695 553.474 238.596C546.372 233.884 545.34 233.561 538.949 233.561C533.978 233.561 532.622 233.819 529.459 235.304L525.779 236.982L525.005 234.658C523.52 229.881 518.54 223.222 514.676 221.295C511.249 219.587 505.317 219.43 501.184 220.198C492.146 221.876 485.691 226.072 483.044 231.947C482.269 233.754 481.301 235.175 480.914 235.175C480.591 235.175 467.873 231.623 452.703 224.909C450.144 223.773 447.74 222.708 445.483 221.707C418.241 209.632 412.336 207.015 412.872 203.736C413.324 200.96 413.195 199.411 412.421 197.023C411.065 193.02 409.516 191.923 405.126 191.923C401.64 191.923 401.64 191.923 402.027 190.18C404.093 180.303 404.028 174.622 401.834 171.007C400.349 168.618 398.606 167.65 394.603 167.069C392.279 166.746 391.182 166.94 388.6 168.36C386.857 169.264 385.372 169.909 385.243 169.78C385.114 169.651 385.566 166.101 386.276 161.905C391.569 130.854 387.48 104.1 373.988 75.6958C373.858 75.424 373.709 75.1026 373.537 74.7348C369.436 65.9289 352.943 30.52 305.776 12.6531C303.641 11.8445 301.621 11.0626 299.679 10.3111L299.679 10.3109C283.612 4.09183 272.931 -0.0425734 247.159 0.000330779C218.274 0.0484196 208.491 4.13186 189.447 12.8468C186.8 14.0733 184.476 14.7835 184.283 14.5252C184.089 14.2025 182.863 13.4278 181.636 12.7822C180.409 12.1367 177.763 10.5228 175.826 9.23171C170.274 5.48752 166.853 3.93819 165.11 4.32552C163.109 4.84197 163.109 6.5204 165.11 7.29506C165.949 7.61784 166.917 8.71527 167.305 9.81271C168.144 12.1367 169.112 12.3949 169.693 10.4583C169.952 9.74815 170.339 9.23171 170.533 9.36082C170.606 9.39755 170.852 9.5126 171.227 9.68817L171.227 9.68825C172.171 10.13 173.932 10.9546 175.826 11.8785C178.473 13.1696 181.378 14.5252 182.152 14.848C183.573 15.3645 183.121 15.7518 176.988 19.3669C153.038 33.4399 133.542 55.3241 122.633 80.2423C120.954 83.9865 119.469 86.3105 117.92 87.6016C113.982 90.8939 106.236 100.254 104.428 103.934C103.46 105.935 101.394 109.034 99.7801 110.841C98.2308 112.649 96.5524 114.973 95.9714 115.941C95.4549 116.974 94.9385 117.684 94.7448 117.555C94.6157 117.362 94.8094 114.198 95.2613 110.519C96.2296 101.933 96.2296 99.6734 95.4549 99.4798C94.2929 99.157 92.6145 103.676 91.9044 109.292C91.388 112.714 91.2589 117.878 91.5816 123.172L91.969 131.564L87.3855 124.14C85.8095 121.658 84.2575 119.175 83.1552 117.412L83.1547 117.411L83.1544 117.411L83.1537 117.41L83.1516 117.406L83.1504 117.405L83.1498 117.404L83.1495 117.403L83.1489 117.402L83.1471 117.399C82.4475 116.28 81.9302 115.453 81.7047 115.102C80.0263 112.649 79.0579 108.969 79.768 107.743C80.1554 107.033 80.0908 106.71 79.4453 106.71C78.0896 106.71 75.4428 111.035 73.6999 116.006C72.8606 118.33 72.0214 120.267 71.7632 120.267C70.7949 120.267 71.2468 97.1558 72.2796 89.732C74.41 75.0779 80.0263 57.0025 82.5439 57.0025C83.0604 57.0025 83.5122 56.7443 83.5122 56.357C83.5122 55.195 81.8338 55.6468 80.4781 57.1316C77.4441 60.4239 73.4416 70.5591 70.924 81.3398C69.181 88.7636 68.0836 98.3178 67.6962 108.711C67.3735 117.684 67.5026 119.169 68.7937 124.075C70.2784 129.562 71.4404 131.176 73.4416 130.402C74.1517 130.143 74.4745 129.175 74.4745 127.368C74.4745 125.947 75.2492 121.687 76.2175 117.878L77.8959 111.035L78.606 113.876C79.5098 117.168 84.8033 127.368 89.5804 134.791C92.8727 139.827 92.9373 140.15 94.0347 148.025C94.6157 152.48 96.4233 163.314 100.619 179.98C104.327 194.706 125.169 209.313 130.374 212.961L130.374 212.961L130.377 212.963C131.061 213.442 131.474 213.732 131.541 213.807C132.187 214.517 133.091 214.904 133.607 214.711C134.188 214.517 134.511 214.775 134.511 215.485C134.511 216.131 134.963 216.97 135.479 217.357C136.125 217.809 136.577 219.552 136.706 222.586C137.028 228.655 141.547 240.275 145.033 244.083C147.293 246.536 152.005 247.569 157.234 246.665C160.656 246.149 161.624 245.762 161.301 244.987C161.107 244.471 162.334 245.116 164.012 246.407C183.637 261.384 203.52 270.357 225.856 274.23C234.507 275.715 248.838 276.554 256.649 275.973C263.556 275.522 263.556 275.522 263.234 276.877C262.782 278.685 263.363 279.782 272.852 295.856C280.405 308.574 281.051 309.413 289.443 317.999C307.26 336.397 326.691 350.664 348.705 361.703C369.427 372.032 402.511 380.617 432.755 383.329C463 386.04 484.722 358.281 484.658 351.18C484.529 341.432 483.173 335.041 479.881 328.844C476.653 322.841 474.523 320.775 464.839 314.319C454.059 307.154 447.409 301.279 443.02 295.017C440.244 291.079 439.211 286.625 439.211 284.237C439.211 282.687 441.212 279.201 444.182 278.491C446.893 277.781 447.409 277.846 450.444 279.33C452.251 280.17 456.964 282.364 460.837 284.237C464.775 286.044 468.584 287.852 469.358 288.239C471.642 288.873 472.608 293.344 473.131 295.767C473.248 296.308 473.343 296.747 473.425 297.018C474.329 300.375 478.606 304.71 481.365 306.185C486.211 308.777 498.151 309.123 501.443 305.573C502.283 304.669 505.065 303.558 505.638 303.894C506.211 304.231 508.285 307.025 508.285 309.284C508.35 313.157 510.351 316.708 514.611 320.258C522.681 326.972 528.943 328.586 535.269 325.616C538.561 324.067 541.26 323.462 541.26 323.462C541.26 323.462 543.951 326.896 544.113 328.069C545.381 337.242 558.96 341.087 562.575 341.474C563.404 341.557 565.016 341.202 566.654 340.842C568.844 340.361 571.079 339.87 571.549 340.4C572.471 341.44 556.12 368.481 553.861 371.902C532.364 404.18 490.532 423.934 439.34 426C406.094 427.355 365.231 418.059 329.79 401.146C307.131 390.236 287.055 376.873 265.558 358.152C261.813 354.924 257.488 351.245 255.939 349.954C254.39 348.727 250.71 344.531 247.87 340.658C243.092 334.202 240.381 331.878 240.381 334.073C240.381 335.041 243.48 340.98 247.03 346.855C248.451 349.179 249.354 350.793 249.032 350.535C248.709 350.276 247.676 354.924 246.708 360.863C243.544 379.907 238.315 398.693 233.022 410.377C230.117 416.704 224.547 421.428 222.868 422.719C216.671 427.432 207.394 429.55 194.547 430.841C178.279 432.455 154.329 428.84 136.06 421.997C131.218 420.19 118.759 414.961 117.92 414.38C117.87 414.329 117.584 412.472 117.185 409.88C117.072 409.149 116.95 408.36 116.823 407.537C114.499 391.592 111.271 330.2 111.271 301.796C111.271 290.047 111.142 287.464 110.367 287.464C108.753 287.464 108.108 289.014 107.398 294.565C105.784 307.218 106.107 373.258 107.85 387.137L108.237 390.301L106.042 389.074C102.685 387.137 89.9032 374.162 85.4489 368.158C81.678 363.026 79.4367 356.452 77.7599 351.534C77.3699 350.39 77.0105 349.336 76.6694 348.41C67.3089 322.459 70.6012 293.339 83.5122 267.129C94.4866 244.793 107.979 232.399 127.732 226.395C130.96 225.427 133.801 224.394 134.123 224.136C135.35 222.974 127.474 223.555 123.149 224.91C109.076 229.236 94.3575 241.049 84.3515 256.155C70.2784 277.329 63.952 308.574 68.4063 335.235C69.4392 341.561 73.6353 355.247 74.7973 356.216C74.9002 356.318 75.4311 357.432 76.2341 359.117C78.4544 363.775 82.7546 372.796 85.8362 376.873C89.5804 381.973 100.878 393.076 105.59 396.498L108.56 398.628L109.012 403.857C109.851 413.863 110.174 414.767 114.692 418.124C125.99 426.71 148.261 434.715 168.402 437.555C177.763 438.846 198.098 438.394 205.844 436.716ZM424.041 376.099C386.534 372.806 341.216 354.923 308.422 327.294C294.607 315.609 276.661 292.887 269.56 280.299C268.075 277.716 266.978 276.49 265.687 276.167C264.331 275.78 265.493 275.392 271.045 274.489C294.478 270.486 317.266 260.738 335.665 246.859L338.376 244.858L339.151 246.73C340.894 250.926 347.607 255.187 352.578 255.187C354.579 255.187 361.293 252.153 365.36 249.377L368.136 247.505L370.395 249.764C372.461 251.83 372.848 251.959 376.722 251.959C381.176 251.959 386.534 249.958 389.504 247.117L391.117 245.633L395.701 248.667C398.154 250.41 404.997 254.218 410.871 257.253C419.651 261.771 428.947 267 437.791 272.423L439.211 273.327L437.855 275.134C436.435 277.071 433.79 280.751 433.79 286.367C433.79 292.693 440.368 304.06 452.961 311.866C462.855 317.999 479.881 330.062 479.235 347.694C479.157 349.824 476.782 355.118 473.619 359.895C471.553 362.929 465.808 367.448 460.579 370.095C451.67 374.549 435.983 377.131 424.041 376.099ZM79.8326 86.3105C81.5756 86.6979 82.7376 87.2789 82.4794 87.5371C81.6401 88.3763 77.1858 87.989 76.153 86.9561C74.5391 85.4068 74.9264 84.3093 77.1858 83.8574C78.3478 83.6638 80.0908 82.6954 81.0591 81.7271C82.0275 80.7588 82.8667 80.3069 82.8667 80.6297C82.8667 81.4689 79.6389 84.4384 78.0251 85.084C76.9922 85.5359 77.3149 85.7295 79.8326 86.3105ZM105.526 87.3434C107.398 86.3105 107.01 85.6004 104.815 85.9232C102.621 86.246 102.491 85.9878 103.912 83.7929C104.493 82.9537 104.815 81.7271 104.686 81.0816C104.493 80.2423 104.041 80.6297 103.008 82.6954C102.233 84.1802 101.136 85.4068 100.619 85.4068C99.0055 85.4068 98.8764 86.6979 100.426 87.2789C102.427 88.1181 103.976 88.1181 105.526 87.3434ZM83.1895 52.0963C81.6401 52.3545 76.7985 54.2912 72.5379 56.4215C68.2127 58.4873 64.533 60.2303 64.2748 60.1657C57.6902 59.4556 66.857 48.4812 83.5122 37.2486C99.4574 26.4679 110.238 20.7871 120.244 17.8821C126.506 16.0746 133.542 15.8163 135.544 17.3011C136.641 18.1403 136.254 18.2049 131.477 18.2694C121.148 18.2694 109.205 23.563 89.7741 36.5385C79.7035 43.2523 68.019 52.871 68.019 54.4203C68.019 54.7431 69.8911 54.0975 72.2151 53.0646C77.1858 50.8052 82.2857 49.6432 84.5451 50.1597C86.9337 50.8052 86.4172 51.6444 83.1895 52.0963ZM108.172 57.6481C114.24 56.4215 114.499 56.357 114.499 55.7114C114.499 55.3886 112.175 55.0659 109.27 54.9367L104.041 54.7431L108.882 49.2559C111.529 46.2218 114.628 43.1877 115.725 42.4776C118.114 40.9283 118.243 39.8308 116.306 39.1853L114.821 38.7334L116.435 38.1524C117.339 37.8296 119.018 37.7005 120.18 37.8942C121.923 38.1524 122.31 38.0233 122.116 37.1195C121.923 36.2158 121.212 36.0221 118.049 36.0866C108.818 36.2158 104.88 38.6689 112.11 39.8308C114.111 40.1536 115.79 40.6701 115.79 40.9928C115.79 41.2511 115.467 41.5093 115.08 41.5093C113.853 41.5093 103.46 52.0318 102.169 54.614C100.167 58.4227 101.265 59.0037 108.172 57.6481ZM150.779 32.6007C148.907 32.7298 148.455 33.0526 148.584 33.9563L148.604 34.0878C148.676 34.5654 148.718 34.8397 148.611 34.923C148.466 35.0354 148.051 34.7998 147.075 34.246L146.905 34.15C145.679 33.5044 145.55 33.1817 146.26 32.6652C146.712 32.2779 147.938 31.6969 148.907 31.5032L150.714 31.0513L149.358 29.6311C148.648 28.7919 148.261 28.0173 148.455 27.759C148.971 27.2426 155.298 27.9527 156.201 28.6628C156.589 28.9856 157.17 28.921 157.557 28.5337C158.461 27.6299 159.687 28.34 159.687 29.7602C159.687 30.5349 159.494 30.5995 158.913 30.0185C158.396 29.502 157.944 29.502 157.363 29.9539C156.847 30.4058 156.46 30.4058 156.137 29.8894C155.943 29.5666 154.717 29.2438 153.425 29.2438C152.234 29.2438 151.671 29.2438 151.556 29.4708C151.453 29.6744 151.711 30.0606 152.199 30.7931C153.229 32.402 153.168 32.407 150.801 32.5989L150.779 32.6007ZM140.966 15.429C140.966 14.5898 140.192 13.105 139.223 12.1367L137.416 10.3292L147.099 10.7165C152.457 10.9747 158.525 11.5557 160.656 12.1367C162.786 12.6531 165.239 13.0405 166.143 13.0405C167.498 13.0405 167.24 12.7822 164.723 11.4266C160.333 9.16716 154.717 8.06972 143.936 7.29506C131.025 6.39129 124.505 7.61784 125.731 10.8456C125.925 11.4911 126.958 11.8139 128.507 11.8139C131.67 11.8139 136.835 13.686 138.578 15.429C140.45 17.3011 140.966 17.3011 140.966 15.429ZM109.463 186.371C114.692 193.085 121.6 200.702 124.828 203.284C126.764 204.834 128.443 206.125 128.572 206.125C128.636 206.125 127.216 203.155 125.409 199.54C118.114 185.015 113.853 170.555 111.852 153.9C111.4 150.22 110.69 147.121 109.915 145.83C108.366 143.248 108.366 139.891 109.98 136.728C110.819 135.05 111.271 132.919 111.271 130.595V127.045L108.172 130.273C105.138 133.436 102.233 134.727 102.233 132.79C102.233 131.37 107.01 124.527 109.528 122.397C111.529 120.718 111.787 120.137 112.433 115.102C112.885 112.068 113.918 106.71 114.757 103.159C115.661 99.6089 116.177 96.5748 116.048 96.4457C115.596 95.9938 100.426 113.417 98.3599 118.975C97.9064 120.196 96.6815 122.332 95.7132 123.623L94.0347 125.778C94.0347 125.778 94.5561 128.796 95.1322 132.589C95.7142 136.42 95.9873 139.054 96.2305 141.4C96.5559 144.539 96.8278 147.162 97.7144 151.447C98.7472 156.74 99.7801 161.324 100.038 161.646C100.232 162.034 101.071 165.003 101.91 168.296C103.718 175.59 106.752 182.82 109.463 186.371ZM371.428 247.44L370.072 246.084C370.072 246.084 392.573 217.497 396.605 206.964C399.681 198.926 401.492 196.646 403.935 196.646C405.302 196.646 406.417 196.958 406.933 197.733C407.837 199.088 408.708 200.767 407.546 206.512C405.609 215.808 402.64 221.941 393.731 235.175C391.666 238.209 389.019 241.566 387.857 242.728C385.145 245.245 379.046 247.827 375.495 248.408C373.236 248.731 372.59 248.602 371.428 247.44Z" fill="#00160A"/>
<path d="M550.181 310.591C558.212 288.709 556.997 284.047 555.604 283.591C555.604 283.591 552.537 285.334 551.181 289.013C548.663 295.921 540.046 313.996 536.818 317.224C533.009 321.033 533.009 321.033 529.136 321.033C525.263 321.033 514.092 315.2 512.571 309.45C510.137 300.25 520.615 268.291 520.873 266.484L519.13 265.257C517.968 266.355 502.853 312.189 482.979 300.246C480.703 298.879 475.878 292.435 475.491 289.013C473.34 279.072 483.209 244.309 484.888 237.169C486.39 230.777 494.212 224.846 503.83 224.846C518.613 224.846 516.628 237.768 523.249 242.322C526.184 244.339 531.006 240.681 532.493 240.403C540.82 238.854 544.011 240.658 550.116 245.503C554.829 249.243 558.316 256.645 562.153 259.254C564.285 260.702 566.547 258.722 567.288 258.35C570.325 256.825 576.842 257.962 578.65 259.254C581.3 260.409 587.793 266.651 588.819 270.281C593.468 286.735 578.787 323.213 573.244 330.056C564.07 341.383 542.15 332.474 550.181 310.591Z" fill="white"/>
<path fill-rule="evenodd" clip-rule="evenodd" d="M179.054 250.632C196.742 261.8 214.981 269.094 235.767 271.096C252.164 272.645 274.273 270.515 290.153 265.35C303.516 261.025 321.592 249.043 333.663 238.908C357.097 219.283 371.88 188.629 378.336 156.094C379.239 151.51 380.618 139.989 380.553 128.563C380.553 115.264 374.701 78.9238 356.968 57.9699C320.394 14.7526 260.275 -4.71555 209.748 11.9187C191.522 17.9193 172.116 28.791 157.462 42.9931C138.999 61.004 125.378 85.5349 119.956 110.582C114.275 137.05 121.664 168.682 134.511 194.633C144.775 215.291 161.689 239.593 179.054 250.632ZM351.416 172.62C339.28 209.093 307.648 236.336 267.882 244.599C261.814 245.825 257.618 246.277 249.096 246.406C243.093 246.6 237.089 246.535 235.862 246.406C208.039 243.049 186.865 232.785 167.369 213.29C158.848 204.704 155.233 200.056 149.94 190.889C141.612 176.364 137.158 161.516 135.802 143.635C131.154 82.3717 174.987 31.3086 236.702 26.0151C260.91 23.9493 287.765 31.3732 308.164 45.8335C315.717 51.1916 329.403 64.7482 333.663 71.0746C335.406 73.5922 352.32 98.3168 355.289 112.519C359.098 130.982 357.613 154.092 351.416 172.62Z" fill="white"/>
<path fill-rule="evenodd" clip-rule="evenodd" d="M380.576 128.563C380.576 171.893 360.08 219.265 333.628 239.496C321.008 249.148 304.515 260.835 290.153 265.351C269.105 271.968 235.767 271.096 235.767 271.096C235.767 271.096 269.779 266.55 282.383 261.477C318.526 246.932 338.256 224.603 350.44 203.18C374.488 160.891 380.576 127.511 380.576 128.563Z" fill="#E7EAEE"/>
<path fill-rule="evenodd" clip-rule="evenodd" d="M236.508 238.661C219.272 236.466 202.165 230.333 188.35 221.231C180.151 215.873 167.757 203.285 161.753 194.312C153.167 181.401 147.487 167.586 144.711 152.738C142.71 141.958 142.774 125.367 144.775 115.748C146.841 105.936 149.488 98.4474 154.2 88.9578C159.688 77.9834 165.497 69.914 174.212 61.199C189.06 46.3514 206.296 36.9263 226.825 32.4075C233.474 30.9872 257.553 29.8253 258.392 30.9227C258.586 31.2455 259.877 32.0847 261.233 32.7948C262.588 33.5695 266.203 36.2808 269.173 38.9275C273.627 42.8008 275.629 45.2539 279.502 51.3221C282.149 55.4536 284.279 59.1978 284.279 59.5206C284.279 60.2307 286.345 61.5218 287.507 61.5218C289.121 61.5218 290.218 56.6802 290.541 48.1589C290.734 43.4464 291.122 39.5731 291.38 39.5731C292.284 39.5731 302.225 45.0603 306.873 48.1589C315.975 54.2271 325.078 62.7484 331.791 71.657C334.826 75.6594 335.277 76.6923 335.277 79.1454C335.277 81.4048 335.923 83.1478 337.924 86.6338C342.96 95.4133 346.897 106.452 349.286 118.653C350.835 126.852 350.835 142.345 349.221 150.931C344.832 174.558 331.791 198.056 314.813 212.968C300.418 225.556 285.118 233.303 267.043 237.112C260.845 238.467 242.254 239.371 236.508 238.661ZM190.351 194.505C190.932 193.86 191.32 192.892 191.126 192.44C191.068 192.304 190.259 191.924 189.076 191.368C186.318 190.071 181.523 187.817 179.445 185.468C171.182 176.043 168.148 169.006 166.276 154.481C164.468 140.344 165.987 130.786 169.245 115.425C170.835 107.932 175.06 101.743 177.688 97.8918C179.476 95.2735 180.525 93.7364 179.506 93.6057C176.988 93.2184 176.601 93.4121 173.954 95.9297C168.273 101.352 165.691 105.678 162.98 114.005C158.784 127.045 157.973 162.286 166.276 178.173C174.579 194.06 188.866 196.184 190.351 194.505ZM282.149 140.279C281.052 150.307 276.403 164.81 270.981 171.136C268.463 174.106 259.221 179.206 251.42 178.173C243.885 177.175 237.993 173.654 232.958 166.101C228.632 159.581 226.399 151.667 224.888 141.699C222.28 124.487 233.668 104.451 238.574 99.4802C243.545 94.3804 247.095 92.5728 251.614 92.5083C256.004 92.5083 258.844 93.4766 263.298 96.6398C271.432 102.321 284.279 120.792 282.149 140.279ZM195.128 86.892C196.419 85.4072 196.613 84.6971 196.226 81.9212C195.967 79.339 195.451 78.3062 194.095 77.2087C191.707 75.2721 188.737 75.2721 186.542 77.3378C184.993 78.8226 184.799 79.339 184.993 82.8896C185.187 86.6983 185.316 86.9565 187.446 88.1185C190.287 89.6679 193.063 89.216 195.128 86.892ZM235.411 47.0615C223.791 55.3891 218.755 58.8105 213.526 62.0383C209.395 64.6205 208.104 64.685 208.104 62.361C208.104 61.1345 209.008 59.7788 211.332 57.6485L214.559 54.679L208.298 53.8398C201.261 52.936 194.418 50.9993 192.933 49.5146C190.48 46.9969 192.611 46.4159 199.583 47.707C202.681 48.2235 208.685 48.869 212.945 48.9981L220.692 49.3209L226.308 45.2539C238.638 36.3453 251.42 31.31 257.553 32.8593C261.362 33.7631 260.91 34.796 256.585 35.3124C251.614 35.8934 248.58 37.5719 235.411 47.0615Z" fill="white"/>
<path d="M252.001 169.329C252.001 169.006 252.388 168.684 252.905 168.684C253.421 168.684 254.067 169.006 254.26 169.329C254.454 169.716 254.067 169.975 253.357 169.975C252.582 169.975 252.001 169.716 252.001 169.329Z" fill="white"/>
<path d="M255.875 168.748C255.875 168.038 257.488 167.393 259.296 167.393C260.716 167.457 260.716 167.457 259.49 168.361C258.069 169.458 255.875 169.652 255.875 168.748Z" fill="white"/>
<path d="M245.868 167.069C245.675 166.553 245.417 165.649 245.223 165.132C245.029 164.487 245.352 164.164 246.191 164.164C246.901 164.164 247.482 164.551 247.482 165.068C247.482 165.584 247.676 166.423 247.87 167.004C248.128 167.715 247.934 168.037 247.224 168.037C246.643 168.037 245.998 167.585 245.868 167.069Z" fill="white"/>
<path d="M249.29 165.455C248.967 163.519 249.677 162.873 252.001 162.873C252.711 162.873 253.292 163.519 253.551 164.616C254.067 166.488 253.228 167.392 250.968 167.392C249.935 167.392 249.484 166.94 249.29 165.455Z" fill="white"/>
<path d="M242.705 165.777C241.479 164.809 241.479 164.809 242.834 164.809C243.673 164.809 244.254 165.196 244.254 165.777C244.254 166.939 244.254 166.939 242.705 165.777Z" fill="white"/>
<path d="M255.681 165.713C254.842 164.874 255.229 162.357 256.262 161.969C258.134 161.259 258.973 161.582 259.361 163.26C259.619 164.229 259.748 165.068 259.619 165.132C259.102 165.713 256.068 166.101 255.681 165.713Z" fill="white"/>
<path d="M261.426 164.358C261.233 164.164 261.039 163.325 261.039 162.55C261.039 161.453 261.556 161.001 263.105 160.678C264.46 160.42 265.3 160.549 265.687 161.065C266.333 162.098 266.333 163.389 265.752 163.712C264.59 164.358 261.878 164.745 261.426 164.358Z" fill="white"/>
<path d="M239.736 162.357C239.736 161.582 240.317 160.937 241.156 160.743C242.834 160.291 242.77 160.227 243.093 161.905C243.222 162.873 242.899 163.261 241.543 163.39C240.123 163.583 239.736 163.325 239.736 162.357Z" fill="white"/>
<path d="M244.642 162.42C243.738 161.452 244.319 159.645 245.545 159.645C246.385 159.645 246.836 160.096 246.836 160.871C246.836 162.098 245.352 163.131 244.642 162.42Z" fill="white"/>
<path d="M248.515 160.484C247.999 159.257 249.096 158.354 251.226 158.354C252.195 158.354 252.647 158.741 252.647 159.58C252.647 160.29 252.066 160.936 251.226 161.194C249.096 161.71 248.967 161.71 248.515 160.484Z" fill="white"/>
<path d="M267.172 160.29C267.365 159.967 267.688 159.645 267.882 159.645C268.075 159.645 268.011 159.967 267.817 160.29C267.624 160.677 267.301 160.936 267.107 160.936C266.914 160.936 266.978 160.677 267.172 160.29Z" fill="white"/>
<path d="M254.325 159.193C253.809 157.902 254.454 157.256 256.52 156.934C257.682 156.804 258.198 157.063 258.328 157.966C258.779 160.097 255.1 161.259 254.325 159.193Z" fill="white"/>
<path d="M238.832 158.095C238.251 155.965 238.38 155.771 240.058 155.771C240.962 155.771 241.672 156.03 241.672 156.352C241.672 156.675 241.866 157.385 242.06 157.902C242.253 158.547 241.866 158.935 240.769 159.128C239.542 159.387 239.09 159.128 238.832 158.095Z" fill="white"/>
<path d="M260.393 157.387C260.393 156.225 260.845 155.708 262.071 155.385C263.879 154.933 264.912 155.837 264.912 157.903C264.912 158.742 264.395 159 262.652 159C260.651 159 260.393 158.807 260.393 157.387Z" fill="white"/>
<path d="M236.895 157.386C236.702 156.87 236.831 156.418 237.153 156.418C237.541 156.418 237.799 156.87 237.799 157.386C237.799 157.903 237.67 158.355 237.541 158.355C237.412 158.355 237.153 157.903 236.895 157.386Z" fill="white"/>
<path d="M243.415 157.903C242.512 157.064 243.028 155.256 244.19 154.933C244.9 154.74 245.61 154.804 245.804 154.998C246.579 155.708 246.127 157.58 245.158 157.967C243.932 158.419 243.932 158.419 243.415 157.903Z" fill="white"/>
<path d="M266.461 157.45C265.751 155.578 266.526 154.157 268.334 153.964C269.689 153.77 270.077 154.028 270.077 155.061C270.077 157.191 269.366 158.353 268.075 158.353C267.365 158.353 266.655 157.966 266.461 157.45Z" fill="white"/>
<path d="M247.934 156.611C247.16 155.901 247.418 154.61 248.515 154.223C249.742 153.771 252.324 155.062 251.614 155.772C250.71 156.547 248.386 157.128 247.934 156.611Z" fill="white"/>
<path d="M253.55 154.998C252.969 154.094 255.035 152.545 256.713 152.545C257.488 152.545 257.811 152.932 257.682 153.642C257.424 154.933 254.131 155.966 253.55 154.998Z" fill="white"/>
<path d="M235.862 154.545C235.862 154.222 235.669 153.512 235.475 152.931C235.281 152.35 235.346 151.898 235.733 151.898C236.572 151.898 237.218 154.352 236.443 154.868C236.12 155.062 235.862 154.933 235.862 154.545Z" fill="white"/>
<path d="M237.605 153.061C237.218 151.64 237.993 150.607 239.477 150.607C240.317 150.607 241.156 153.125 240.639 153.964C239.929 155.062 237.928 154.416 237.605 153.061Z" fill="white"/>
<path d="M242.124 153.384C241.156 152.416 241.737 150.092 243.028 149.769C243.996 149.511 244.513 149.834 245.029 150.996C245.416 151.835 245.61 152.674 245.481 152.803C244.835 153.384 242.511 153.836 242.124 153.384Z" fill="white"/>
<path d="M259.554 153.384C258.715 152.545 259.102 152.028 261.039 151.318C262.653 150.802 263.105 150.866 263.428 151.641C264.009 153.19 260.781 154.675 259.554 153.384Z" fill="white"/>
<path d="M265.235 151.898C264.589 150.865 265.493 149.961 267.171 149.961C269.173 149.961 269.754 151.639 267.946 152.156C266.009 152.672 265.687 152.608 265.235 151.898Z" fill="white"/>
<path d="M270.722 150.349C270.722 149.381 271.884 148.348 272.401 148.864C272.852 149.316 271.949 151.253 271.303 151.253C270.98 151.253 270.722 150.866 270.722 150.349Z" fill="white"/>
<path d="M235.023 149.509C234.765 149.315 234.571 148.476 234.636 147.766C234.636 146.54 234.7 146.54 235.281 147.96C235.927 149.509 235.798 150.284 235.023 149.509Z" fill="white"/>
<path d="M236.25 148.541C235.669 146.282 235.733 146.088 237.412 146.088C239.284 146.088 240.446 148.476 239.026 149.38C237.541 150.284 236.702 150.026 236.25 148.541Z" fill="white"/>
<path d="M258.457 149.833C258.457 149.64 258.779 148.607 259.167 147.445C260.07 144.863 262.072 144.733 262.524 147.251C262.717 148.219 262.782 149.059 262.717 149.123C262.394 149.511 258.457 150.092 258.457 149.833Z" fill="white"/>
<path d="M240.833 148.219C240.575 148.025 240.381 147.25 240.381 146.54C240.381 145.507 240.575 145.443 241.35 146.088C241.866 146.54 242.318 147.315 242.318 147.767C242.318 148.735 241.543 148.993 240.833 148.219Z" fill="white"/>
<path d="M264.073 146.928C263.686 144.927 264.525 144.023 266.526 144.281C267.494 144.411 267.817 144.992 267.817 146.412C267.817 148.026 267.559 148.413 266.139 148.542C264.719 148.736 264.396 148.413 264.073 146.928Z" fill="white"/>
<path d="M270.399 147.186C269.56 144.604 269.818 143.829 271.561 143.635C273.11 143.442 273.304 143.635 273.304 145.314C273.304 146.734 272.917 147.315 271.948 147.573C271.238 147.767 270.528 147.573 270.399 147.186Z" fill="white"/>
<path d="M234.055 143.506C234.055 142.279 234.184 141.763 234.377 142.408C234.507 142.989 234.507 144.022 234.377 144.668C234.184 145.249 234.055 144.732 234.055 143.506Z" fill="white"/>
<path d="M235.669 144.345C234.83 143.57 235.217 141.053 236.25 140.665C237.734 140.084 238.445 140.794 238.445 142.925C238.445 144.28 238.122 144.797 237.283 144.797C236.637 144.797 235.862 144.603 235.669 144.345Z" fill="white"/>
<path d="M239.542 142.602C239.284 141.634 239.155 140.601 239.413 140.408C240.058 139.762 240.446 140.795 240.252 142.667L240.058 144.474L239.542 142.602Z" fill="white"/>
<path d="M260.393 142.151C260.393 141.441 260.716 141.053 261.039 141.247C261.426 141.441 261.684 142.086 261.684 142.603C261.684 143.119 261.426 143.506 261.039 143.506C260.716 143.506 260.393 142.925 260.393 142.151Z" fill="white"/>
<path d="M263.298 142.99C262.395 142.022 263.105 140.279 264.589 139.891C266.462 139.439 266.526 139.439 267.107 141.311C267.494 142.473 267.236 142.732 265.558 142.99C264.525 143.184 263.492 143.119 263.298 142.99Z" fill="white"/>
<path d="M269.237 141.764C268.527 141.118 268.721 138.988 269.431 138.988C269.818 138.988 270.076 138.73 270.076 138.342C270.076 138.02 269.689 137.697 269.173 137.697C268.075 137.697 267.171 134.534 268.075 133.63C269.237 132.468 270.528 133.694 271.303 136.858C271.755 138.536 272.207 140.473 272.4 141.118C272.659 141.958 272.4 142.216 271.174 142.216C270.335 142.216 269.431 142.022 269.237 141.764Z" fill="white"/>
<path d="M272.723 138.342C272.271 136.405 271.109 132.532 270.27 129.691C268.979 125.56 268.85 124.527 269.56 124.075C270.012 123.752 270.593 123.494 270.787 123.494C271.497 123.494 274.079 136.728 273.821 139.31L273.627 141.892L272.723 138.342Z" fill="white"/>
<path d="M233.409 138.02C233.409 136.987 233.538 136.6 233.732 137.245C233.861 137.826 233.861 138.73 233.732 139.182C233.538 139.569 233.409 139.117 233.409 138.02Z" fill="white"/>
<path d="M234.7 137.89C234.959 135.631 236.831 135.114 237.347 137.18C237.799 138.859 237.928 138.665 235.991 139.31C234.636 139.698 234.507 139.569 234.7 137.89Z" fill="white"/>
<path d="M261.943 137.309C261.426 135.437 262.524 134.34 264.589 134.598C266.139 134.792 266.72 137.567 265.429 138.407C263.815 139.44 262.33 138.988 261.943 137.309Z" fill="white"/>
<path d="M238.444 136.792C238.444 135.694 238.767 135.113 239.477 135.113C240.123 135.113 240.381 135.565 240.252 136.533C239.929 138.599 238.444 138.793 238.444 136.792Z" fill="white"/>
<path d="M232.699 134.081C232.699 133.371 232.893 133.178 233.087 133.694C233.28 134.146 233.216 134.727 233.022 134.921C232.828 135.179 232.635 134.792 232.699 134.081Z" fill="white"/>
<path d="M233.926 133.887C233.926 132.919 234.313 132.531 235.281 132.531C236.185 132.531 236.508 132.854 236.379 133.629C236.056 135.307 233.926 135.501 233.926 133.887Z" fill="white"/>
<path d="M237.476 133.307C237.025 132.145 237.025 132.145 238.961 131.628C240.123 131.241 240.381 131.435 240.381 132.403C240.381 133.952 238.057 134.727 237.476 133.307Z" fill="white"/>
<path d="M260.845 132.402C260.393 130.788 261.232 129.949 263.492 129.949C264.589 129.949 264.912 130.337 264.912 131.563C264.912 132.531 264.525 133.177 264.008 133.177C263.492 133.177 262.653 133.371 262.136 133.564C261.555 133.758 261.103 133.371 260.845 132.402Z" fill="white"/>
<path d="M266.462 130.918C265.945 129.627 266.72 128.658 268.205 128.658C269.108 128.658 269.431 129.11 269.431 130.272C269.431 131.434 269.108 131.886 268.14 131.886C267.43 131.886 266.655 131.434 266.462 130.918Z" fill="white"/>
<path d="M233.28 130.014C233.28 128.658 234.765 127.109 235.411 127.819C235.669 128.013 235.862 128.916 235.862 129.756C235.862 130.789 235.475 131.24 234.571 131.24C233.732 131.24 233.28 130.789 233.28 130.014Z" fill="white"/>
<path d="M236.831 129.241C236.314 127.627 236.895 126.917 239.09 126.594C241.091 126.336 241.737 128.466 239.994 129.757C238.316 130.983 237.283 130.79 236.831 129.241Z" fill="white"/>
<path d="M260.2 128.851C259.748 128.464 259.554 126.076 259.942 126.076C260.006 126.076 260.974 125.817 262.136 125.495C264.073 124.914 264.202 124.978 264.138 126.721C264.073 128.012 263.686 128.658 262.717 128.916C260.974 129.368 260.716 129.368 260.2 128.851Z" fill="white"/>
<path d="M257.811 127.368C257.811 126.917 258.005 126.723 258.263 126.917C258.457 127.175 258.457 127.562 258.263 127.82C258.005 128.014 257.811 127.82 257.811 127.368Z" fill="white"/>
<path d="M265.041 126.335C265.235 125.238 267.236 123.624 267.688 124.14C267.882 124.334 268.204 125.109 268.398 125.948C268.85 127.239 268.656 127.368 266.849 127.368C265.299 127.368 264.848 127.11 265.041 126.335Z" fill="white"/>
<path d="M233.926 126.27C233.926 125.948 234.249 125.302 234.571 124.786C235.088 124.011 235.217 124.075 235.217 125.302C235.217 126.077 234.959 126.722 234.571 126.722C234.249 126.722 233.926 126.529 233.926 126.27Z" fill="white"/>
<path d="M235.862 124.851C235.862 123.043 237.218 122.462 238.251 123.818C238.896 124.786 238.896 125.109 238.251 125.561C236.895 126.4 235.862 126.142 235.862 124.851Z" fill="white"/>
<path d="M255.487 124.01C254.325 122.719 254.325 122.655 255.423 123.042C256.068 123.3 256.907 123.494 257.23 123.494C257.553 123.494 257.811 123.946 257.811 124.462C257.811 125.818 256.907 125.689 255.487 124.01Z" fill="white"/>
<path d="M241.608 123.946C238.832 121.816 238.444 117.039 241.027 117.039C242.77 117.039 244.384 119.75 244.125 122.268C243.932 124.592 243.157 125.108 241.608 123.946Z" fill="white"/>
<path d="M259.296 124.333C259.554 124.139 259.942 124.139 260.2 124.333C260.393 124.591 260.2 124.785 259.748 124.785C259.296 124.785 259.102 124.591 259.296 124.333Z" fill="white"/>
<path d="M269.044 121.815C269.237 121.234 269.431 120.653 269.431 120.524C269.431 120.395 269.754 120.266 270.077 120.266C270.464 120.266 270.722 120.847 270.722 121.557C270.722 122.331 270.27 122.848 269.689 122.848C268.979 122.848 268.786 122.525 269.044 121.815Z" fill="white"/>
<path d="M235.217 121.621C235.217 120.137 236.572 117.684 237.347 117.684C238.703 117.684 237.734 121.815 236.314 122.073C235.733 122.202 235.217 122.009 235.217 121.621Z" fill="white"/>
<path d="M249.742 120.913L247.805 120.461L249.548 120.009C251.356 119.493 252.647 119.88 252.647 120.978C252.647 121.623 252.582 121.623 249.742 120.913Z" fill="white"/>
<path d="M247.482 117.814C247.482 115.167 248.967 114.78 250.323 117.104C251.227 118.653 251.291 118.976 250.452 118.976C249.936 118.976 249.096 119.17 248.515 119.363C247.741 119.686 247.482 119.299 247.482 117.814Z" fill="white"/>
<path d="M258.715 118.716C255.81 117.425 253.938 114.004 253.938 109.937C253.938 107.032 254.196 106.322 255.939 104.708C257.037 103.675 258.134 102.836 258.457 102.836C259.877 102.836 265.106 107.807 266.849 110.905L268.85 114.456L266.72 116.715C264.267 119.297 261.555 120.008 258.715 118.716Z" fill="white"/>
<path d="M245.223 117.038C245.029 116.715 245.158 116.393 245.481 116.393C245.868 116.393 246.191 116.715 246.191 117.038C246.191 117.425 246.062 117.684 245.933 117.684C245.739 117.684 245.416 117.425 245.223 117.038Z" fill="white"/>
<path d="M236.766 116.006C236.96 115.425 237.153 114.844 237.153 114.715C237.153 114.586 237.734 114.457 238.444 114.457C240.058 114.457 240.123 115.49 238.509 116.394C236.766 117.297 236.314 117.233 236.766 116.006Z" fill="white"/>
<path d="M241.866 115.232C240.381 115.038 239.929 114.199 240.897 113.618C241.156 113.424 242.318 113.101 243.48 112.843C245.223 112.456 245.545 112.585 245.545 113.682C245.545 115.038 244.19 115.619 241.866 115.232Z" fill="white"/>
<path d="M246.837 113.037C246.837 112.263 246.901 111.811 247.031 111.94C247.095 112.069 247.612 112.715 248.063 113.36C248.838 114.264 248.774 114.458 247.87 114.458C247.224 114.458 246.837 113.941 246.837 113.037Z" fill="white"/>
<path d="M237.799 112.584C237.799 112.196 238.122 111.744 238.444 111.551C238.832 111.357 239.09 111.615 239.09 112.132C239.09 112.713 238.832 113.165 238.444 113.165C238.122 113.165 237.799 112.906 237.799 112.584Z" fill="white"/>
<path d="M240.187 111.616C239.671 110.325 244.254 108.905 245.029 110.131C245.61 111.164 245.029 111.616 242.576 112.133C241.091 112.455 240.446 112.326 240.187 111.616Z" fill="white"/>
<path d="M246.256 109.55C246.256 108.84 246.449 108.646 246.643 109.163C246.837 109.615 246.772 110.196 246.579 110.389C246.385 110.648 246.191 110.26 246.256 109.55Z" fill="white"/>
<path d="M240.769 108.518C241.543 107.097 243.803 104.773 244.384 104.773C245.029 104.773 245.094 107.808 244.448 108.195C244.125 108.324 243.093 108.647 242.124 108.905C240.704 109.228 240.381 109.163 240.769 108.518Z" fill="white"/>
<path d="M245.933 107.032C245.223 105.096 245.546 104.257 247.095 103.998C248.709 103.676 248.709 103.676 247.676 105.677C246.385 108.259 246.449 108.259 245.933 107.032Z" fill="white"/>
<path d="M245.545 103.16C245.545 103.031 246.837 102.127 248.45 101.223C250.387 100.061 251.743 99.6737 252.711 99.9319C253.873 100.319 253.55 100.577 250.71 101.933C247.547 103.353 245.545 103.87 245.545 103.16Z" fill="white"/>
<path d="M281.374 45.9627C279.631 43.4451 275.951 39.3781 273.304 36.925C270.658 34.4719 268.915 32.4707 269.431 32.4707C270.851 32.4707 281.696 35.4402 284.408 36.6022C286.667 37.5706 286.732 37.6997 286.151 39.7009C285.828 40.8629 285.57 43.7679 285.57 46.1564C285.57 48.6095 285.376 50.5461 285.118 50.5461C284.795 50.5461 283.181 48.4804 281.374 45.9627Z" fill="white"/>
<path d="M150.004 241.501C147.357 240.146 146.776 239.371 143.419 232.722C138.578 223.297 138.448 221.102 143.032 226.46C144.839 228.59 149.035 232.98 152.328 236.208C157.944 241.631 158.202 242.018 156.33 241.76C154.975 241.566 154.458 241.695 154.781 242.212C155.556 243.374 153.102 243.051 150.004 241.501Z" fill="white"/>
<path fill-rule="evenodd" clip-rule="evenodd" d="M258.191 359.115C257.655 357.843 258.252 356.377 259.525 355.841L260.916 355.251C274.438 349.465 282.2 345.989 287.473 340.47C292.747 334.952 293.378 326.845 294.369 321.913C294.641 320.559 297.706 322.936 299.06 323.208C300.414 323.48 301.291 324.798 301.019 326.152C299.827 332.082 296.619 337.736 291.455 343.103C286.307 348.452 276.342 354.186 261.465 360.449C260.192 360.985 258.727 360.388 258.191 359.115Z" fill="#00160A"/>
<path fill-rule="evenodd" clip-rule="evenodd" d="M319.341 101.54C320.528 100.833 322.062 101.223 322.768 102.409C329.84 114.288 333.628 127.868 333.628 141.996C333.628 184.798 298.93 219.496 256.128 219.496C244.754 219.496 233.723 217.043 223.622 212.369C222.368 211.789 217.635 207.173 222.402 209.05C227.17 210.928 245.616 215.142 256.261 215.142C296.301 215.142 324.628 182.037 324.628 141.996C324.628 128.774 319.341 117.039 318.472 104.967C318.371 103.567 318.155 102.246 319.341 101.54Z" fill="#00160A"/>
<path fill-rule="evenodd" clip-rule="evenodd" d="M71.7466 290.751C72.6303 289.69 74.2067 287.547 75.2676 288.43C79.6197 292.055 84.264 296.255 89.2319 297.066C94.4015 297.91 100.534 297.91 107.623 297.052C108.993 296.886 110.239 297.862 110.405 299.233C110.571 300.604 109.594 301.849 108.224 302.015C100.696 302.927 94.1 302.927 88.4267 302.001C82.5517 301.042 77.0881 298.454 72.0675 294.272C71.0066 293.388 70.863 291.812 71.7466 290.751Z" fill="#00160A"/>
<path d="M124.827 203.285C121.6 200.703 114.692 193.085 109.463 186.371C106.752 182.821 103.718 175.591 101.91 168.296C101.071 165.004 100.232 162.034 100.038 161.647C99.7801 161.324 98.7472 156.741 97.7143 151.447C96.165 143.959 96.4927 141.546 95.1321 132.589C94.556 128.797 94.0347 125.779 94.0347 125.779L95.7131 123.624C96.6814 122.333 97.9063 120.196 98.3599 118.976C100.426 113.417 115.596 95.9942 116.048 96.4461C116.177 96.5752 115.661 99.6093 114.757 103.16C113.918 106.71 112.885 112.068 112.433 115.103C111.787 120.138 111.529 120.719 109.528 122.397C107.01 124.528 102.233 131.37 102.233 132.791C102.233 134.727 105.138 133.436 108.172 130.273L111.271 127.045V130.596C111.271 132.92 110.819 135.05 109.98 136.729C108.366 139.892 108.366 143.249 109.915 145.831C110.69 147.122 111.4 150.221 111.852 153.9C113.853 170.555 118.114 185.016 125.408 199.541C127.216 203.156 128.636 206.125 128.572 206.125C128.443 206.125 126.764 204.834 124.827 203.285Z" fill="white"/>
<path fill-rule="evenodd" clip-rule="evenodd" d="M393.441 243.114L398.089 245.18C399.053 245.625 409.685 250.733 422.457 256.87C443.048 266.764 469.199 279.329 469.358 279.329C469.616 279.329 470.828 276.528 471.101 273.261C471.747 266.225 474.135 256.671 476.911 250.021C478.202 247.052 479.235 243.341 479.235 243.018C479.235 242.87 478.186 242.447 476.468 241.754C474.422 240.929 471.429 239.722 468.132 238.143C451.864 230.332 420.038 214.387 416.1 211.998C412.227 209.739 411.452 209.545 411.452 211.03C411.452 212.967 407.514 221.94 404.48 226.782C402.866 229.428 399.703 234.205 397.444 237.369L393.441 243.114ZM468.261 267.709C470.112 268.782 466.905 270.356 466.13 270.614C461.569 271.002 456.199 270.144 451.799 267.58C449.499 265.949 431.384 255.885 419.368 249.21C413.875 246.158 409.656 243.814 408.806 243.308C406.094 241.694 403.512 239.951 403.06 239.434C401.704 237.691 402.996 236.917 406.804 237.239C409.094 237.434 464.262 265.392 468.261 267.709Z" fill="white"/>
<path d="M347.091 248.926C345.413 248.345 343.605 247.054 342.443 245.569L340.506 243.18L347.349 236.402C357.872 226.073 365.618 214.785 372.59 202.197C374.914 198.001 381.822 181.078 382.661 179.206C383.952 176.495 384.92 175.462 387.696 173.913C390.988 171.976 394.733 171.33 396.347 172.428C399.445 174.494 399.445 181.014 396.347 192.246C392.925 204.576 388.342 213.42 378.852 226.138C377.367 228.074 374.591 231.883 372.59 234.53C367.232 241.631 363.746 245.052 359.034 247.699C354.386 250.281 351.674 250.604 347.091 248.926Z" fill="white"/>
<path d="M371.428 247.44L370.072 246.085C370.072 246.085 392.573 217.498 396.604 206.964C399.681 198.926 401.492 196.646 403.935 196.646C405.301 196.646 406.417 196.958 406.933 197.733C407.837 199.089 408.708 200.767 407.546 206.513C405.609 215.808 402.64 221.941 393.731 235.175C391.665 238.209 389.019 241.566 387.857 242.728C385.145 245.246 379.045 247.828 375.495 248.409C373.235 248.732 372.59 248.602 371.428 247.44Z" fill="white"/>
<path fill-rule="evenodd" clip-rule="evenodd" d="M409.223 217.548C410.525 214.57 411.453 211.972 411.453 211.032C411.453 209.547 412.227 209.741 416.1 212C420.038 214.389 451.864 230.334 468.132 238.145C474.2 241.05 479.235 242.697 479.235 243.02C479.235 243.342 407.843 220.706 409.223 217.548Z" fill="#E7EAEE"/>
<path fill-rule="evenodd" clip-rule="evenodd" d="M188.349 221.231C180.151 215.873 167.756 203.285 161.753 194.312C153.167 181.4 147.486 167.586 144.71 152.738C142.709 141.957 142.774 125.367 144.775 115.748C146.841 105.936 149.487 98.4471 154.2 88.9575C159.687 77.9832 165.497 69.9138 174.212 61.1988C182.758 52.6527 144.775 87.9946 154.2 151.229C161.753 204.219 194.213 225.094 188.349 221.231Z" fill="#E7EAEE"/>
</svg>
